<!--Generator: Adobe Illustrator 16.0.3, SVG Export Plug-In . SVG Version: 6.00 Build 0)--><svg xmlns="http://www.w3.org/2000/svg" xmlns:xlink="http://www.w3.org/1999/xlink" width="3328" height="448"><path fill="#E6E7E8" d="M9.641 51.016c.342 0 .655-.127.893-.337l-.001.001 36.508-33.634-.01.003a1.351 1.351 0 0 0-.845-2.405l.047-.005H9.539c-.69 0-1.25.56-1.25 1.25v33.776c0 .746.605 1.351 1.352 1.351zm5.264-14.526V21.892c0-.292.237-.528.528-.528h16c.251 0 .46.176.514.411L15.402 37.016a.527.527 0 0 1-.497-.526z"/><path fill="#f1f1f2" d="M15.113 21.474a.526.526 0 0 1 .32-.111h16c.251 0 .46.176.514.411l-8.848 8.151 4.636 4.907 19.306-17.787-.01.003a1.351 1.351 0 0 0-.845-2.405l.047-.005H9.539a1.24 1.24 0 0 0-.688.208l6.262 6.628z"/><path fill="#6C75E2" d="M29.309 49.702l-4.435-4.839 24.89-22.817 4.435 4.866z"/><path opacity=".55" fill="#3a43ae" d="M54.199 26.912l-2.194-2.422-24.888 22.821 2.192 2.391z"/><path fill="#e67c32" d="M55.367 25.841c-.642.58-1.631.53-2.211-.112l-2.31-2.555a1.566 1.566 0 0 1 .112-2.212l2.555-2.309a1.565 1.565 0 0 1 2.211.112l2.31 2.555c.58.641.529 1.631-.112 2.211l-2.555 2.31z"/><path fill="#E6E7E8" d="M54.199 26.912l1.25-1.144-4.435-4.866-1.25 1.145z"/><path fill="#d1d3d4" d="M54.199 26.912l1.25-1.144-2.203-2.416-1.25 1.145z"/><path fill="#6C75E2" d="M25.475 50.714l-2-2.176L23 49.787a1.02 1.02 0 0 0 .692 1.264c.248.072.468.024.718-.055h-.001l1.066-.282z"/><path fill="#FEB480" d="M25.475 50.714l3.843-1.016-4.444-4.835-1.398 3.676z"/><path fill="#d1d3d4" d="M16.555 45.132l-8.266-8.694v13.31a1.351 1.351 0 0 0 2.245 1.014l-.001.001 6.022-5.631z"/><path fill="#f1f1f2" d="M430.255 9.324H400.643c-.69 0-1.25.56-1.25 1.25V53.249c0 .69.56 1.25 1.25 1.25H430.255c.69 0 1.25-.559 1.25-1.25V10.574c0-.691-.56-1.25-1.25-1.25z"/><defs><path id="a" d="M431.505 8.966l-32.112 46.068h33.213V8.966z"/></defs><clipPath id="b"><use xlink:href="#a" overflow="visible"/></clipPath><path clip-path="url(#b)" fill="#E6E7E8" d="M430.255 9.324H400.643c-.69 0-1.25.56-1.25 1.25V53.249c0 .69.56 1.25 1.25 1.25H430.255c.69 0 1.25-.559 1.25-1.25V10.574c0-.691-.56-1.25-1.25-1.25z"/><path fill="#FEB480" d="M401.67 17.55h27.49v29.57h-27.49z"/><path fill="#e67c32" d="M423.462 18.235h-21.79v-.689h22.276z"/><path fill="#6C75E2" d="M419.588 13.703a.342.342 0 0 0-.343-.342h-14.683v.002l-.022-.002a.343.343 0 1 0 0 .685l.022-.002v.005h14.683v-.003a.344.344 0 0 0 .343-.343zM423.175 13.703a.343.343 0 0 0-.343-.342h-1.916a.343.343 0 1 0 0 .685v.003h1.916v-.003a.344.344 0 0 0 .343-.343zM426.633 13.703a.342.342 0 0 0-.343-.342h-1.916a.343.343 0 1 0 0 .685v.003h1.916v-.003a.344.344 0 0 0 .343-.343zM414.46 50.94h1.92v.69h-1.92z"/><circle fill="#6C75E2" cx="414.46" cy="51.28" r=".34"/><circle fill="#6C75E2" cx="416.38" cy="51.28" r=".34"/><path fill="#6C75E2" d="M423.948 17.546l-20.915 29.575 26.13.036V17.546z"/><path fill="#e67c32" d="M401.67 18.25h.69v28.58h-.69z"/><path fill="#FFF" d="M401.67 46.83h27.49v.96h-27.49z"/><path opacity=".7" fill="#3a43ae" d="M423.948 17.546l-.486.689h5.701v-.689z"/><path fill="#6C75E2" d="M403.725 46.144h25.438v.689h-25.926z"/><path opacity=".7" fill="#3a43ae" d="M429.163 46.833V36.136l-7.564 10.697z"/><path fill="#e67c32" d="M402.357 46.144v.689h.88l.488-.689z"/><path fill="#f1f1f2" d="M1207.484 47.077c-.951 0-1.675-.815-1.675-1.766v-.996c-1.812 1.992-4.302 3.034-7.244 3.034-3.713 0-7.652-2.49-7.652-7.245 0-4.89 3.939-7.199 7.652-7.199 2.988 0 5.479.951 7.244 2.988v-3.939c0-2.943-2.354-4.618-5.524-4.618-2.173 0-4.029.679-5.704 2.083a1.554 1.554 0 0 1-.951.362c-.725 0-1.494-.543-1.494-1.358 0-.362.136-.724.453-.996 2.309-2.083 5.025-3.033 8.149-3.033 4.618 0 8.467 2.083 8.467 7.38v13.628c0 .905-.769 1.675-1.721 1.675zm-1.674-9.011c-1.313-1.811-3.622-2.717-6.022-2.717-3.169 0-5.388 1.992-5.388 4.799 0 2.762 2.219 4.754 5.388 4.754 2.4 0 4.709-.906 6.022-2.717v-4.119z"/><path fill="#FEB480" d="M1170.85 36.332h-2.502l1.279-3.527-3.18-9.167-7.426 19.078c-.182.408-.227.815-.227 1.223 0 1.721 1.358 3.441 3.396 3.441 1.403 0 2.672-.815 3.17-2.128l1.222-3.26h6.231l-1.963-5.66z"/><path fill="#6C75E2" d="M1187.048 42.716l-8.784-22.684c-.86-2.218-3.169-3.577-5.479-3.396-2.128 0-4.165 1.358-4.935 3.396l-1.403 3.605 3.18 9.167 3.43-9.467 4.709 12.995h-6.916l1.964 5.659h6.718l1.178 3.26c.498 1.313 1.766 2.128 3.124 2.128 2.083 0 3.44-1.766 3.44-3.441-.001-.407-.09-.814-.226-1.222z"/><path fill="#E6E7E8" d="M1202.764 44.398a8.768 8.768 0 0 1-2.977.505c-3.169 0-5.388-1.992-5.388-4.754 0-2.755 2.141-4.721 5.218-4.792l-.853-2.448c-.066-.001-.132-.004-.199-.004-3.713 0-7.652 2.309-7.652 7.199 0 4.754 3.939 7.245 7.652 7.245 1.795 0 3.42-.39 4.827-1.144l-.628-1.807z"/><path fill="#d1d3d4" d="M1193.63 29.781c.317 0 .679-.136.951-.362a8.952 8.952 0 0 1 2.452-1.484l-.94-2.702a11.536 11.536 0 0 0-3.504 2.193 1.285 1.285 0 0 0-.453.996c0 .815.769 1.359 1.494 1.359z"/><path fill="#f1f1f2" d="M1389.69 8.396h-36.565c-.69 0-1.25.56-1.25 1.25V52.321c0 .69.56 1.25 1.25 1.25h36.565c.69 0 1.249-.559 1.249-1.25V9.646c0-.691-.558-1.25-1.249-1.25z"/><path fill="#E6E7E8" d="M1389.69 8.396h-36.565c-.69 0-1.25.56-1.25 1.25V52.321c0 .69.56 1.25 1.25 1.25h36.565c.69 0 1.249-.559 1.249-1.25V9.646c0-.691-.558-1.25-1.249-1.25z"/><path fill="#f1f1f2" d="M1390.394 8.613a1.24 1.24 0 0 0-.703-.218h-36.565c-.69 0-1.25.56-1.25 1.25V52.32c0 .397.188.747.478.976l38.04-44.683z"/><path fill="#6C75E2" d="M1355.74 12.33h31.34v34.66h-31.34z"/><path opacity=".55" fill="#3a43ae" d="M1355.736 46.988h31.342V12.333z"/><path opacity=".7" fill="#3a43ae" d="M1355.74 12.33h31.34v.69h-31.34zM1355.736 46.988V13.022h.689v33.205z"/><path opacity=".59" fill="#d1d3d4" d="M1387.08 25.5h3.86v2.03h-3.86z"/><path fill="#3a43ae" d="M1387.078 46.988V25.495h-1.083l.003.002c-3.5.022-3.201 2.124-3.201 2.124v19.368h4.281z"/><path fill="#FFF" d="M1355.74 46.99H1384v.69h-28.26z"/><path opacity=".59" fill="#d1d3d4" d="M1382.784 46.988l-.623.689v5.913h5.64v-6.602z"/><path fill="#f1f1f2" d="M1400.125 54.354c0 .69-.56 1.25-1.25 1.25h-13.632a1.25 1.25 0 0 1-1.25-1.25V27.939c0-.69.56-1.25 1.25-1.25h13.632c.69 0 1.25.56 1.25 1.25v26.415z"/><path fill="#e67c32" d="M1386.354 51.725v.095h11.411V39.108z"/><path fill="#E6E7E8" d="M1383.993 54.354c0 .69.56 1.25 1.25 1.25h13.632c.69 0 1.25-.559 1.25-1.25v-20.8l-16.132 17.817v2.983z"/><path fill="#FEB480" d="M1386.35 29.05h11.41v22.77h-11.41z"/><path fill="#e67c32" d="M1386.35 29.05h11.41v.86h-11.41z"/><path fill="#e67c32" d="M1386.35 29.66h.86v22.16h-.86zM1388.482 51.82h9.283V41.568z"/><path fill="#FFF" d="M1386.35 51.25h11.41v.69h-11.41z"/><circle fill="#d1d3d4" cx="1371.41" cy="50.53" r="1.37"/><circle fill="#d1d3d4" cx="1392.06" cy="53.73" r=".86"/><g><path fill="#E6E7E8" d="M249.956 13.331h-49.717c-.661 0-1.196.535-1.196 1.196v30.815c0 .66.536 1.196 1.196 1.196h49.717c.661 0 1.196-.536 1.196-1.196V14.526c0-.66-.535-1.195-1.196-1.195zm-1.614 30.396h-46.489V16.14h46.489v27.587z"/><path fill="#f1f1f2" d="M199.48 46.258l51.234-32.649a1.187 1.187 0 0 0-.759-.278h-49.717c-.661 0-1.196.535-1.196 1.196v30.815c.001.369.173.697.438.916z"/><path fill="#6C75E2" d="M201.85 16.14h46.49v27.59h-46.49z"/><path fill="#E6E7E8" d="M254.076 47.802h-57.957c-.661 0-1.196.536-1.196 1.196v1.322c0 .66.535 1.196 1.196 1.196h57.957c.661 0 1.196-.536 1.196-1.196v-1.322a1.197 1.197 0 0 0-1.196-1.196z"/><path opacity=".55" fill="#3a43ae" d="M248.342 43.727V25.95L235.77 43.727z"/><path fill="#FEB480" d="M220.406 16.14h-18.553v26.236z"/><path opacity=".7" fill="#3a43ae" d="M230.774 25.137a8.005 8.005 0 0 0-5.677-2.355l-.037.001-.02-.001-.063.003c-4.374.064-7.912 3.64-7.912 8.028 0 2.215.902 4.221 2.356 5.675a8.005 8.005 0 0 0 5.556 2.354l.063.003H225.097c4.429 0 8.032-3.603 8.032-8.031a8.007 8.007 0 0 0-2.355-5.677zm1.656 5.545h-3.311a15.292 15.292 0 0 0-.298-2.946h2.932a7.25 7.25 0 0 1 .677 2.946zm-2.149-5.053c.423.423.795.896 1.105 1.412h-2.727c-.375-1.413-.955-2.567-1.669-3.315a7.338 7.338 0 0 1 3.291 1.903zm-4.836-2.096c1.038.282 1.949 1.63 2.482 3.507h-2.482v-3.507zm0 4.203h2.657l.012.06c.191.888.302 1.865.311 2.886h-2.979v-2.946zm-.695 2.946h-3.092c.009-1.044.124-2.042.323-2.946h2.77v2.946zm.695.695h2.969a14.046 14.046 0 0 1-.367 2.746h-2.603v-2.746zm-.695-7.87v3.533h-2.595c.552-1.945 1.509-3.321 2.595-3.533zm-1.698.263c-.696.749-1.262 1.885-1.628 3.271h-2.615a7.356 7.356 0 0 1 4.243-3.271zm-4.612 3.966h2.82a15.281 15.281 0 0 0-.299 2.946h-3.197c.02-1.05.259-2.047.676-2.946zm-.654 3.641h3.185c.033.978.151 1.902.34 2.746h-2.756a7.253 7.253 0 0 1-.769-2.746zm6.964 6.741c-1.042-.203-1.964-1.479-2.526-3.3h2.526v3.3zm0-3.995h-2.715a5.981 5.981 0 0 1-.045-.202l-.897.897h.396c.367 1.28.907 2.331 1.563 3.038a7.387 7.387 0 0 1-4.095-3.038h2.135l.897-.897a14.075 14.075 0 0 1-.322-2.544h3.083v2.746zm.695 3.969v-3.273h2.413c-.541 1.754-1.418 3.003-2.413 3.273zm1.545-.193c.674-.707 1.229-1.775 1.604-3.081h2.645a7.364 7.364 0 0 1-4.249 3.081zm4.651-3.776h-2.87c.189-.844.308-1.768.341-2.746h3.298a7.308 7.308 0 0 1-.769 2.746z"/><path fill="#e67c32" d="M219.919 16.829h-18.066v-.689h18.553zM202.542 16.829v24.58l-.689.967V16.829z"/><path fill="#e67c32" d="M202.542 16.829v24.58l-.689.967V16.829z"/><path opacity=".7" fill="#3a43ae" d="M220.406 16.14h27.936v.689h-28.423zM202.542 43.727v-2.315l-.689.967v1.348z"/><path fill="#FFF" d="M201.85 42.79h46.48v.96h-46.48z"/></g><g><path fill="#f1f1f2" d="M1585.28 10.77h-26.113l-9.696 11.132v30.079c0 .69.56 1.25 1.249 1.25h34.561c.69 0 1.249-.56 1.249-1.25V12.019a1.25 1.25 0 0 0-1.25-1.249z"/><path fill="#E6E7E8" d="M1549.901 52.917c.22.193.504.313.818.313h34.561c.69 0 1.249-.56 1.249-1.25V12.019c0-.309-.116-.588-.302-.806l-36.326 41.704z"/><path fill="#d1d3d4" d="M1549.471 21.902h8.447a1.25 1.25 0 0 0 1.249-1.25V10.77l-9.696 11.132z"/><path fill="#e67c32" d="M1579.716 20.21c-.011 0-.021.003-.03.003-.01 0-.019-.003-.027-.003h-7.259c-.027 0-.053.006-.079.009-.029-.002-.058-.009-.088-.009a1.298 1.298 0 1 0 0 2.596c.03 0 .059-.007.088-.009.026.003.052.009.079.009h7.259l.027-.003.03.003a1.298 1.298 0 1 0 0-2.596z"/><path fill="#6C75E2" d="M1579.938 30.391l-.025.002-.022-.002h-20.293c-.022 0-.044.005-.065.007-.024-.001-.048-.007-.073-.007a1.075 1.075 0 1 0 0 2.15c.025 0 .049-.006.073-.007.021.002.043.007.065.007H1579.891l.022-.002.025.002a1.075 1.075 0 1 0 0-2.15z"/><circle fill="#FEB480" cx="1555.89" cy="31.47" r="1.08"/><path fill="#6C75E2" d="M1579.938 35.728l-.025.002-.022-.002h-20.293c-.022 0-.044.005-.065.007-.024-.002-.048-.007-.073-.007a1.075 1.075 0 1 0 0 2.15c.025 0 .049-.006.073-.008.021.002.043.008.065.008H1579.891c.008 0 .016-.002.022-.003.009 0 .017.003.025.003a1.075 1.075 0 1 0 0-2.15z"/><circle fill="#FEB480" cx="1555.89" cy="36.81" r="1.08"/><path fill="#6C75E2" d="M1579.938 41.07c-.009 0-.017.002-.025.003l-.022-.003h-20.293c-.022 0-.044.005-.065.008-.024-.002-.048-.008-.073-.008a1.075 1.075 0 0 0 0 2.15c.025 0 .049-.005.073-.007.021.002.043.007.065.007H1579.891l.022-.002.025.002a1.075 1.075 0 1 0 0-2.15z"/><circle fill="#e67c32" cx="1555.89" cy="42.15" r="1.08"/></g><g><path fill="#E6E7E8" d="M2356.127 13.485H2315.873a1.25 1.25 0 0 0-1.249 1.25v34.531c0 .69.56 1.25 1.249 1.25H2356.127a1.25 1.25 0 0 0 1.249-1.25V14.734c0-.69-.56-1.249-1.249-1.249z"/><path fill="#f1f1f2" d="M2357.042 13.889a1.245 1.245 0 0 0-.915-.404H2315.873a1.25 1.25 0 0 0-1.249 1.25v34.531c0 .238.069.457.185.646l42.233-36.023z"/><path fill="#E6E7E8" d="M2329.269 13.485h-13.395a1.25 1.25 0 0 0-1.249 1.25v11.242l14.644-12.492z"/><path fill="#d1d3d4" d="M2342.731 50.515h13.395a1.25 1.25 0 0 0 1.249-1.25V38.023l-14.644 12.492z"/><path fill="#FEB480" d="M2317.84 16.7h36.32v30.6h-36.32z"/><path fill="#e67c32" d="M2354.162 30.661l-14.645 12.491v4.149h14.645z"/><circle fill="#e67c32" cx="2327.13" cy="25.28" r="3.91"/><path fill="#6C75E2" d="M2354.162 45.832l-12.51-17.525-13.871 18.994h26.381z"/><path opacity=".55" fill="#3a43ae" d="M2341.652 28.307l-13.871 18.994h13.871z"/><path fill="#6C75E2" d="M2322.357 47.301l8.299-11.233 2.775 3.497-5.65 7.736z"/></g><g><g fill="#E6E7E8"><path d="M2741.741 21.873v-7.139c0-.69-.56-1.25-1.25-1.25h-40.983a1.25 1.25 0 0 0-1.249 1.25v7.139h43.482zM2698.259 22.833v26.432c0 .69.56 1.25 1.249 1.25h40.983c.69 0 1.25-.56 1.25-1.25V22.833h-43.482z"/></g><g fill="#f1f1f2"><path d="M2731.884 21.873l9.485-8.027a1.246 1.246 0 0 0-.878-.361h-40.983a1.25 1.25 0 0 0-1.249 1.25v7.139h33.625zM2698.259 22.833v26.432c0 .31.117.59.304.808l32.187-27.24h-32.491z"/></g><path fill="#d1d3d4" d="M2741.741 21.873v-7.139c0-.69-.56-1.25-1.25-1.25h-40.983a1.25 1.25 0 0 0-1.249 1.25v7.139h43.482z"/><circle fill="#6C75E2" cx="2702.84" cy="17.68" r="1.78"/><circle fill="#6C75E2" cx="2708.22" cy="17.68" r="1.78"/><circle fill="#e67c32" cx="2713.57" cy="17.68" r="1.78"/><path fill="#FEB480" d="M2722.697 26.291a1.225 1.225 0 0 0-1.513.843l-5.138 17.938a1.226 1.226 0 1 0 2.357.671l5.138-17.939a1.225 1.225 0 0 0-.844-1.513z"/><path fill="#6C75E2" d="M2733.356 35.543l-1.769-1.59-.006.007-2.238-2.014a.973.973 0 0 0-1.301 1.446l2.39 2.149.006-.006.896.806-.942 1.047.007.005-2.014 2.239a.972.972 0 1 0 1.446 1.3l2.148-2.389-.006-.006 1.454-1.617c.18-.2.262-.454.248-.703a.962.962 0 0 0-.319-.674zM2709.567 35.541l2.39-2.149a.973.973 0 0 0-1.301-1.446l-2.238 2.014-.006-.007-1.769 1.59a.97.97 0 0 0-.32.675.968.968 0 0 0 .248.703l1.455 1.617-.007.006 2.149 2.389a.973.973 0 1 0 1.445-1.3l-2.014-2.239.007-.005-.942-1.047.896-.806.007.005z"/></g><g><path fill="#6C75E2" d="M53.046 204.38l-17.177.339v42.394H51.95a1.2 1.2 0 0 0 1.201-1.201V204.865a1.213 1.213 0 0 0-.105-.485z"/><path opacity=".55" fill="#3a43ae" d="M49.639 221.506l3.511-10.776v-6.303l-1.755 4.532-1.789 7.512z"/><path fill="#6C75E2" d="M36.133 206.169l-17.043-.031v39.776a1.2 1.2 0 0 0 1.201 1.201h15.843v-40.946z"/><path fill="#FEB480" d="M22.6 209.43h27.04v34.17H22.6z"/><path fill="#E6E7E8" d="M52.257 203.665H20.961c-.664 0-1.363.538-1.563 1.202l-.382 1.271-2.908 9.666-.201.667-.125.419-.056.184-.101.334-.533 1.774-.517 1.716-.383 1.271-2.907 9.666-.383 1.271c-.199.664.177 1.202.841 1.202h31.298c.664 0 1.363-.538 1.563-1.202l.382-1.271 2.908-9.666.382-1.271.517-1.716.533-1.774.101-.334.056-.184.126-.419.2-.667 2.908-9.666.383-1.271c.197-.664-.179-1.202-.843-1.202z"/><path fill="#e67c32" d="M49.639 215.041l-.981 2.708-.958 3.166-.625 2.041-2.564 8.705-.435 1.541c-.2.664-.253.625-.917.625l-6.456.167-3.303.039-5.527.086-4.249-.125-1.021.042v1.783h21.779c.664 0 1.364-.539 1.563-1.202l.383-1.271 2.907-9.667.383-1.271.022-.075v-7.292z"/><path fill="#FFF" d="M52.432 203.684c.013.135 0 .282-.046.436l-.382 1.271-2.908 9.667-.201.667-.126.419-.056.184-.1.334-.534 1.774-.517 1.716-.382 1.271-2.908 9.667-.382 1.271c-.2.664-.899 1.202-1.563 1.202H11.024c-.062 0-.119-.01-.175-.019.04.447.377.766.887.766H43.04c.664 0 1.363-.538 1.563-1.202l.382-1.271 2.908-9.666.382-1.271.517-1.716.533-1.774.101-.334.056-.184.126-.419.2-.667 2.908-9.666.383-1.271c.179-.604-.116-1.098-.667-1.185z"/><path opacity=".55" fill="#3a43ae" d="M19.09 234.31h3.51v1.23h-3.51z"/><path fill="#f1f1f2" d="M52.706 203.77l.003-.002a.988.988 0 0 0-.452-.103H20.961c-.664 0-1.363.538-1.563 1.202l-.382 1.271-2.908 9.666-.201.667-.125.419-.056.184-.101.334-.533 1.774-.517 1.716-.383 1.271-2.907 9.666-.383 1.271c-.046.152-.058.297-.046.432l41.85-29.768z"/><path fill="#d1d3d4" d="M42.66 213.368l.472-1.568H24.154l-.471 1.568zM41.787 216.942l.472-1.568H23.281l-.472 1.568z"/><path fill="#6C75E2" d="M26.746 205.449c-.443-.064-.911-.77-.911-1.766 0-1.044.515-1.772.977-1.772.459 0 .97.719.976 1.753h1.025c-.008-1.559-.884-2.778-2.001-2.778-1.122 0-2.001 1.229-2.001 2.797 0 1.537.845 2.745 1.936 2.792v-1.026zM35.835 205.449c-.443-.064-.911-.77-.911-1.766 0-1.044.516-1.772.977-1.772.46 0 .971.719.977 1.753h1.024c-.007-1.559-.883-2.778-2.001-2.778-1.122 0-2.001 1.229-2.001 2.797 0 1.537.846 2.745 1.936 2.792v-1.026zM44.944 205.449c-.443-.064-.91-.77-.91-1.766 0-1.044.515-1.772.976-1.772.459 0 .97.719.977 1.753h1.024c-.007-1.559-.883-2.778-2.001-2.778-1.122 0-2.001 1.229-2.001 2.797 0 1.537.846 2.745 1.936 2.792v-1.026z"/></g><g><path fill="#d1d3d4" d="M2534.349 8.879h-9.607a.696.696 0 1 0 0 1.391h9.607a2.477 2.477 0 0 1 2.474 2.475v.406a2.477 2.477 0 0 1-2.474 2.475h-3.05a3.866 3.866 0 0 0-3.86 3.756h-.005V20h.007a.692.692 0 0 0 1.381 0h.002v-.018l.002-.021-.002-.021v-.558h.006a2.476 2.476 0 0 1 2.469-2.365h3.05a3.87 3.87 0 0 0 3.865-3.866v-.406a3.871 3.871 0 0 0-3.865-3.866z"/><path fill="#6C75E2" d="M2528 32.737h12.331c-1.864-6.06-6.681-10.377-12.331-10.377v10.377z"/><path fill="#FEB480" d="M2528 22.359c-5.65 0-10.468 4.317-12.331 10.377H2528V22.359z"/><path fill="#f1f1f2" d="M2528 34.745h-12.639a19.08 19.08 0 0 0-.519 4.431c0 8.806 5.891 15.945 13.157 15.945V34.745z"/><path fill="#E6E7E8" d="M2540.639 34.745H2528v20.376c7.267 0 13.157-7.139 13.157-15.945 0-1.538-.183-3.024-.518-4.431z"/><path fill="#d1d3d4" d="M2541.129 38.168c-.422 8.344-6.137 14.954-13.129 14.954v1.999c7.267 0 13.157-7.139 13.157-15.945 0-.339-.011-.675-.028-1.008z"/><path fill="#E6E7E8" d="M2528 53.122c-6.992 0-12.707-6.61-13.129-14.954-.018.333-.028.669-.028 1.008 0 8.806 5.891 15.945 13.157 15.945v-1.999z"/></g><g><path fill="#FEB480" d="M203.34 202.76h41.21v40.76h-41.21z"/><path fill="#6C75E2" d="M234.206 202.765l-28.826 40.763 39.173.054v-40.817z"/><path opacity=".7" fill="#3a43ae" d="M244.553 243.096v-16.035l-11.34 16.035z"/><path fill="#FFF" d="M203.75 238.47h40.5v.69h-40.5z"/><path fill="#f1f1f2" d="M245.862 201.366H202.137c-.661 0-1.196.536-1.196 1.196V245.438c0 .66.535 1.196 1.196 1.196h43.725c.661 0 1.196-.536 1.196-1.196V202.562a1.195 1.195 0 0 0-1.196-1.196zm-1.613 27.04v10.723H203.751v-34.952h40.498v24.229z"/><path fill="#E6E7E8" d="M246.705 201.714l-2.51 2.463h.054v34.985h-37.264l-5.69 7.124c.217.215.514.348.843.348h43.725c.661 0 1.196-.536 1.196-1.196V202.562c0-.332-.136-.631-.354-.848z"/><circle fill="#d1d3d4" cx="223.95" cy="242.85" r="1.71"/><path fill="#e67c32" d="M222.307 204.177h-18.553v.688H232.724l.487-.688zM204.442 223.419V204.865h-.688V238.473h.688z"/><path opacity=".7" fill="#3a43ae" d="M244.233 204.177H233.213l-.486.688h11.506z"/></g><g><path fill="#f1f1f2" d="M416 201.745c-12.291 0-22.255 9.964-22.255 22.255 0 4.281 1.211 8.279 3.307 11.673l-1.281 9.618 9.832-1.77c3.241 1.842 6.403 2.733 10.397 2.733 12.292 0 22.255-9.964 22.255-22.255s-9.963-22.254-22.255-22.254z"/><path fill="#E6E7E8" d="M416 201.745v44.51c12.292 0 22.255-9.964 22.255-22.255s-9.963-22.255-22.255-22.255z"/><path fill="#6C75E2" d="M416.1 244.558c-3.468 0-6.891-.874-9.914-2.53l-8.89 1.551 1.028-9.142a20.627 20.627 0 0 1-2.887-10.542c0-11.394 9.269-20.663 20.663-20.663 11.393 0 20.662 9.269 20.662 20.663 0 11.393-9.269 20.663-20.662 20.663zm-9.664-3.999l.218.123a19.27 19.27 0 0 0 9.445 2.471c10.618 0 19.257-8.639 19.257-19.257s-8.639-19.258-19.257-19.258c-10.619 0-19.258 8.639-19.258 19.258 0 3.544.971 7.008 2.808 10.017l.125.205-.874 7.754 7.536-1.313z"/><g fill="#FEB480"><path d="M416 231.284c-1.117 0-2.061.943-2.061 2.061 0 1.116.943 2.06 2.061 2.06 1.117 0 2.061-.943 2.061-2.06s-.944-2.061-2.061-2.061zM415.967 229.204c.738 0 1.304-.519 1.346-1.239l.454-13.503a1.68 1.68 0 0 0-.477-1.239 1.758 1.758 0 0 0-1.258-.54c-.506 0-.991.202-1.331.555a1.658 1.658 0 0 0-.47 1.222l.455 13.512c.042.702.592 1.232 1.281 1.232z"/></g><path fill="#FEB480" d="M408.004 227.861c-.711 0-1.312.601-1.312 1.312s.601 1.312 1.312 1.312c.71 0 1.311-.601 1.311-1.312s-.601-1.312-1.311-1.312zm-.021-1.324c.47 0 .83-.33.857-.789l.289-8.594a1.068 1.068 0 0 0-.304-.789 1.12 1.12 0 0 0-.801-.344c-.322 0-.631.129-.847.354a1.055 1.055 0 0 0-.299.778l.29 8.6a.815.815 0 0 0 .815.784z"/><path fill="#e67c32" d="M424.023 227.861c-.711 0-1.312.601-1.312 1.312s.601 1.312 1.312 1.312 1.312-.601 1.312-1.312-.601-1.312-1.312-1.312zm-.02-1.324c.469 0 .83-.33.856-.789l.29-8.594a1.072 1.072 0 0 0-.304-.789 1.118 1.118 0 0 0-.801-.344c-.322 0-.631.129-.847.354a1.05 1.05 0 0 0-.299.778l.289 8.6a.816.816 0 0 0 .816.784z"/><g fill="#e67c32"><path d="M416 229.201c.721-.016 1.272-.526 1.313-1.236l.454-13.503a1.68 1.68 0 0 0-.477-1.239 1.758 1.758 0 0 0-1.258-.54l-.032.001v16.517zM416 231.284v4.12c1.117 0 2.061-.943 2.061-2.06 0-1.116-.944-2.06-2.061-2.06z"/></g><g fill="#FEB480"><path d="M415.967 229.204c.011 0 .021-.003.033-.003v-16.517a1.841 1.841 0 0 0-1.298.554 1.658 1.658 0 0 0-.47 1.222l.455 13.512c.041.702.591 1.232 1.28 1.232zM416 231.284c-1.117 0-2.061.943-2.061 2.061 0 1.116.943 2.06 2.061 2.06v-4.121z"/></g></g><path opacity=".7" fill="#3a43ae" d="M608.344 29.351v5.298l-.688-.561v-4.207z"/><g><path fill="#6C75E2" d="M608.048 42.41l21.373-17.483v-.201L608.04 8.2h-.079l-21.114 16.319z"/><path fill="#FEB480" d="M590.52 18.77h35v27.44h-35z"/><path fill="#f1f1f2" d="M629.433 23.755L608.046 41.25l-.046.011-21.421-17.521a1.24 1.24 0 0 0-.32.829v29.982c0 .69.56 1.25 1.25 1.25h40.983c.69 0 1.25-.56 1.25-1.25V24.568a1.241 1.241 0 0 0-.309-.813z"/><path fill="#FFF" d="M613.922 28.527c0-3.2-2.603-5.803-5.803-5.803s-5.803 2.603-5.803 5.803a5.81 5.81 0 0 0 8.437 5.172l-.318-.624c-.721.368-1.5.555-2.316.555-2.813 0-5.103-2.289-5.103-5.103s2.289-5.103 5.103-5.103a5.109 5.109 0 0 1 4.939 6.388l-.02.078c-.015.052-.029.104-.045.155h.001c-.207.672-.54 1.041-1.013 1.041-.419 0-.765-.247-.765-.938V25.47h-.802v1.247c-.506-.827-1.383-1.296-2.444-1.296-1.752 0-3.061 1.321-3.061 3.172 0 1.864 1.309 3.197 3.061 3.197 1.086 0 1.975-.494 2.468-1.346.05.852.593 1.346 1.395 1.346.855 0 1.501-.537 1.826-1.538l.003.001c.172-.557.26-1.137.26-1.726zm-5.842 2.546c-1.37 0-2.357-1-2.357-2.48 0-1.481.987-2.457 2.357-2.457 1.333 0 2.345.963 2.345 2.457 0 1.506-1.012 2.48-2.345 2.48z"/><path opacity=".7" fill="#3a43ae" d="M595.17 18.086l-.891.688h27.442l-.891-.688z"/><path fill="#e67c32" d="M625.525 27.65l-.003-1.836-17.499 14.156-17.503-14.156.001 1.805 17.489 13.958h.022z"/><path fill="#E6E7E8" d="M629.433 23.755L608.119 41.19V55.8h20.373c.69 0 1.25-.56 1.25-1.25V24.568a1.241 1.241 0 0 0-.309-.813z"/><path opacity=".7" fill="#3a43ae" d="M625.522 21.715v5.298l.689-.561v-4.207z"/><path fill="#FFF" d="M608 42.422l.048-.012 21.693-17.746v-.096c0-.313-.119-.595-.308-.813L608.046 41.25l-.046.011-21.421-17.521a1.24 1.24 0 0 0-.32.829v.07L608 42.422z"/></g><g><path fill="#E6E7E8" d="M972.802 232.137v7.652c0 2.11 8.595 3.821 19.198 3.821s19.198-1.711 19.198-3.821v-7.652h-38.396z"/><defs><path id="c" d="M972.802 232.137v7.652c0 2.11 8.595 3.821 19.198 3.821s19.198-1.711 19.198-3.821v-7.652h-38.396z"/></defs><clipPath id="d"><use xlink:href="#c" overflow="visible"/></clipPath><path clip-path="url(#d)" fill="#d1d3d4" d="M1010.407 206.109l-10.83 39.404 13.412-3.165v-37.321z"/><ellipse fill="#f1f1f2" cx="992" cy="232.14" rx="19.2" ry="3.82"/><path fill="#FEB480" d="M972.802 220.361v7.652c0 2.11 8.595 3.82 19.198 3.82s19.198-1.71 19.198-3.82v-7.652h-38.396z"/><defs><path id="e" d="M972.802 220.361v7.652c0 2.11 8.595 3.82 19.198 3.82s19.198-1.71 19.198-3.82v-7.652h-38.396z"/></defs><clipPath id="f"><use xlink:href="#e" overflow="visible"/></clipPath><path clip-path="url(#f)" fill="#e67c32" d="M1010.407 206.109l-10.83 39.404 13.412-3.165v-37.321z"/><ellipse fill="#ffc399" cx="992" cy="220.36" rx="19.2" ry="3.82"/><path fill="#6C75E2" d="M972.802 208.21v7.652c0 2.111 8.595 3.821 19.198 3.821s19.198-1.71 19.198-3.821v-7.652h-38.396z"/><defs><path id="g" d="M972.802 208.21v7.652c0 2.111 8.595 3.821 19.198 3.821s19.198-1.71 19.198-3.821v-7.652h-38.396z"/></defs><clipPath id="h"><use xlink:href="#g" overflow="visible"/></clipPath><path opacity=".7" clip-path="url(#h)" fill="#3a43ae" d="M1010.407 206.109l-10.83 39.404 13.412-3.165v-37.321z"/><ellipse fill="#818af0" cx="992" cy="208.21" rx="19.2" ry="3.82"/><g><defs><path id="i" d="M972.802 232.137v7.652c0 2.11 8.595 3.821 19.198 3.821s19.198-1.711 19.198-3.821v-7.652h-38.396z"/></defs><clipPath id="j"><use xlink:href="#i" overflow="visible"/></clipPath><path clip-path="url(#j)" fill="#f1f1f2" d="M973.937 244.43l10.829-39.403-13.412 3.165v37.321z"/></g><g><defs><path id="k" d="M972.802 220.361v7.652c0 2.11 8.595 3.82 19.198 3.82s19.198-1.71 19.198-3.82v-7.652h-38.396z"/></defs><clipPath id="l"><use xlink:href="#k" overflow="visible"/></clipPath><path clip-path="url(#l)" fill="#ffc399" d="M973.937 244.43l10.829-39.403-13.412 3.165v37.321z"/></g><g><defs><path id="m" d="M972.802 208.21v7.652c0 2.111 8.595 3.821 19.198 3.821s19.198-1.71 19.198-3.821v-7.652h-38.396z"/></defs><clipPath id="n"><use xlink:href="#m" overflow="visible"/></clipPath><path clip-path="url(#n)" fill="#818af0" d="M973.937 244.43l10.829-39.403-13.412 3.165v37.321z"/></g></g><g><path fill="#f1f1f2" d="M1773.911 42.795a2.018 2.018 0 0 0-.725-1.339l-7.703-5.992-.292-.234-16.532-12.631-.533-.413a.278.278 0 0 1-.093-.179l-.756-6.769-1.738.194.755 6.77c.06.526.316 1.002.725 1.339l17.093 13.065 7.435 5.792.534.414a.278.278 0 0 1 .093.178l.81 7.248s1.001-.298 1.681-.708l-.754-6.735z"/><path fill="#f1f1f2" d="M1747.203 50.373l-1.69-.66.781-6.917c.06-.527.316-1.002.725-1.34l.021-.017.549-.424 7.407-5.771 17.084-13.058a.278.278 0 0 0 .093-.179l.755-6.769 1.739.194-.756 6.77a2.016 2.016 0 0 1-.724 1.339l-.022.017-.548.424-16.541 12.638-.256.206-7.694 5.985a.278.278 0 0 0-.093.178l-.83 7.384z"/><path fill="#E6E7E8" d="M1744.396 48.384v2.209c0 1.844 6.986 3.338 15.604 3.338s15.604-1.495 15.604-3.338v-2.209h-31.208z"/><path fill="#6C75E2" d="M1749.648 45.482l-.246 3.335.246.045.288-3.599z"/><defs><path id="o" d="M1744.396 48.384v2.209c0 1.844 6.986 3.338 15.604 3.338s15.604-1.495 15.604-3.338v-2.209h-31.208z"/></defs><clipPath id="p"><use xlink:href="#o" overflow="visible"/></clipPath><path clip-path="url(#p)" fill="#d1d3d4" d="M1768.011 14.528l-11.362 41.204 23.243-.667-9.298-41.619z"/><ellipse fill="#f1f1f2" cx="1760" cy="48.38" rx="15.6" ry="3.34"/><path fill="#6C75E2" d="M1770.352 45.512v-.03l-10.328-7.861-.05.003-10.165 7.736-.005.004-.155.119-.007.155-.239 3.18.141.024-.002.001c2.77.52 6.396.834 10.368.834 4.005 0 7.659-.32 10.438-.847l.247-.039-.243-3.279z"/><path fill="#6C75E2" d="M1770.352 45.512v-.03l-10.328-7.861-.05.003-10.165 7.736-.005.004-.155.119-.007.155-.239 3.18.141.024-.002.001c2.77.52 6.396.834 10.368.834 4.005 0 7.659-.32 10.438-.847l.247-.039-.243-3.279z"/><path opacity=".55" fill="#3a43ae" d="M1756.773 49.609l3.254-11.985-.004-.003-.05.003-10.165 7.736-.005.004-.155.119-.007.155-.239 3.18.141.024-.002.001c2.021.379 4.498.648 7.232.766z"/><path fill="#FEB480" d="M1764.709 21.09c-1.475.1-3.042.155-4.67.155H1760c-4.028 0-7.699-.326-10.468-.862l.116 1.302 10.325 7.857.05.003.029-.145 4.657-8.31z"/><path fill="#e67c32" d="M1762.286 21.21l-2.28 8.335.018.001 10.328-7.861.116-1.302c-2.235.433-5.058.729-8.182.827z"/><path fill="#E6E7E8" d="M1773.054 49.947l-.651-6.656a2.04 2.04 0 0 0-.827-1.379l-8.872-7.16-.037-.048c-.88-.8-1.292-1.641-1.226-2.498.094-1.217 1.141-1.973 1.325-2.097l8.795-7.098c.766-.569.838-1.345.841-1.377l.544-5.506.941.104-.544 5.493c-.002.034-.092 1.253-1.224 2.093l-8.841 7.132c-.007.004-.838.55-.896 1.343-.039.527.273 1.093.929 1.681l.055.057 8.769 7.076c1.116.828 1.206 2.048 1.21 2.1l.626 6.264-.415.242-.502.234zM1747.123 50.016l-.498-.219-.395-.209.63-6.399c.001-.033.092-1.253 1.224-2.093l8.753-7.064.054-.057c.656-.588.969-1.153.93-1.681-.058-.793-.889-1.339-.897-1.344l-.042-.03-8.813-7.112a3.047 3.047 0 0 1-1.21-2.1l-.542-5.475.94-.104.544 5.492c.004.046.076.822.826 1.379l8.811 7.11c.185.124 1.231.88 1.325 2.097.066.857-.347 1.697-1.226 2.498l-.037.048-.045.036-8.813 7.112c-.766.569-.838 1.345-.841 1.378l-.678 6.737z"/><path fill="#E6E7E8" d="M1744.396 13.406v2.209c0 1.844 6.986 3.338 15.604 3.338s15.604-1.495 15.604-3.338v-2.209h-31.208z"/><path fill="#E6E7E8" d="M1744.396 13.406v2.209c0 1.844 6.986 3.338 15.604 3.338s15.604-1.495 15.604-3.338v-2.209h-31.208z"/><g><defs><path id="q" d="M1744.396 13.406v2.209c0 1.844 6.986 3.338 15.604 3.338s15.604-1.495 15.604-3.338v-2.209h-31.208z"/></defs><clipPath id="r"><use xlink:href="#q" overflow="visible"/></clipPath><path clip-path="url(#r)" fill="#d1d3d4" d="M1775.376-12.011l-10.83 39.404 13.412-3.166v-37.321z"/></g><ellipse fill="#f1f1f2" cx="1760" cy="13.41" rx="15.6" ry="3.34"/></g><g><path fill="#6C75E2" d="M2156.987 10.246l-6.147 6.148H2152.519v36.11c0 .69.56 1.25 1.249 1.25h6.439c.689 0 1.25-.56 1.25-1.25v-36.11h1.678l-6.148-6.148z"/><path fill="#FEB480" d="M2144 23.057l-6.147 6.147H2139.532v23.3c0 .69.559 1.25 1.25 1.25h6.438c.69 0 1.249-.56 1.249-1.25v-23.3H2150.149L2144 23.057z"/><path fill="#f1f1f2" d="M2131.013 35.771l-6.147 6.147h1.678v10.586c0 .69.56 1.25 1.25 1.25h6.439a1.25 1.25 0 0 0 1.249-1.25V41.918h1.679l-6.148-6.147z"/><path opacity=".55" fill="#3a43ae" d="M2152.519 38.614v13.89c0 .69.56 1.25 1.249 1.25h6.439c.689 0 1.25-.56 1.25-1.25V25.938l-8.938 12.676z"/><path fill="#e67c32" d="M2141.85 53.754h5.37c.69 0 1.249-.56 1.249-1.25v-8.143l-6.619 9.393z"/></g><g><path fill="#6C75E2" d="M621.21 206.902h-17.494V205.042c0-.69-.559-1.25-1.25-1.25h-19.16c-.69 0-1.25.559-1.25 1.25V241.841c0 .689.56 1.25 1.25 1.25h19.16c.69 0 1.25-.561 1.25-1.25v-13.279h17.494c.69 0 1.25-.56 1.25-1.25v-19.16a1.25 1.25 0 0 0-1.25-1.25z"/><path opacity=".7" fill="#3a43ae" d="M583.73 208.71h34.32v.69h-34.32zM583.73 209.4h.69v31.1h-.69z"/><path fill="#FEB480" d="M584.42 209.4h35.83v31.67h-35.83z"/><path fill="#e67c32" d="M590.292 213.935l-5.869 13.796v9.473z"/><path fill="#f1f1f2" d="M630.884 224.189l2.833-10.064c.194-.69-.208-1.25-.898-1.25h-40.983c-.69 0-1.407.56-1.602 1.25l-4.594 16.321-.151.538-1.272 4.519-1.895 6.731c-.194.69.208 1.249.897 1.249h40.983c.69 0 1.407-.559 1.601-1.249l4.594-16.321.151-.538.336-1.186z"/><defs><path id="s" d="M634.415 212.973l-53.691 31.235h45.722l8.83-31.235z"/></defs><clipPath id="t"><use xlink:href="#s" overflow="visible"/></clipPath><path clip-path="url(#t)" fill="#E6E7E8" d="M630.884 224.286l2.833-10.063c.194-.69-.208-1.25-.898-1.25h-40.983c-.69 0-1.407.56-1.602 1.25l-4.594 16.32-.151.539-1.272 4.518-1.895 6.732c-.194.689.208 1.249.897 1.249h40.983c.69 0 1.407-.56 1.601-1.249l4.594-16.321.151-.538.336-1.187z"/><path fill="#FFF" d="M583.063 243.123l1.895-6.731 1.272-4.519.151-.538 4.594-16.321c.194-.69.911-1.25 1.602-1.25h40.983c.065 0 .125.01.184.019-.006-.518-.373-.898-.94-.898h-40.983c-.69 0-1.407.56-1.602 1.25l-4.594 16.32-.152.539-1.271 4.518-1.895 6.732c-.176.625.14 1.139.714 1.23a1.181 1.181 0 0 1 .042-.351z"/></g><g><path fill="#6C75E2" d="M3301.094 36.221l-.551.451a.445.445 0 0 0-.063.626l.958 1.171.112.138 2.211 2.704c.156.19.437.219.626.063l.552-.451a.445.445 0 0 0 .063-.626l-2.212-2.705-.112-.138-.958-1.171a.445.445 0 0 0-.626-.062z"/><path opacity=".55" fill="#3a43ae" d="M3301.477 37.495l-.132-.16-1.114-1.364c-.017-.02-.029-.041-.042-.063l-.146.12a.445.445 0 0 0-.063.626l.958 1.171.112.138 2.212 2.705c.155.19.436.219.626.063l.142-.116-2.553-3.12z"/><path fill="#6C75E2" d="M3303.725 38.642l-1.488 1.217a1.2 1.2 0 0 0-.17 1.69l2.586 3.162.304.372 5.97 7.3a1.2 1.2 0 0 0 1.689.17l1.488-1.217a1.2 1.2 0 0 0 .17-1.69l-5.969-7.301-.305-.372-2.585-3.162a1.2 1.2 0 0 0-1.69-.169z"/><path opacity=".55" fill="#3a43ae" d="M3305.356 42.643l-.466-.57-2.148-2.628-.506.414a1.2 1.2 0 0 0-.17 1.69l2.586 3.162.304.372 5.97 7.3a1.2 1.2 0 0 0 1.689.17l.506-.414-7.765-9.496z"/><path fill="#f1f1f2" d="M3292.23 40.727c-8.146 0-14.775-6.628-14.775-14.775s6.629-14.776 14.775-14.776c8.147 0 14.776 6.628 14.776 14.776s-6.628 14.775-14.776 14.775zm0-27.149c-6.822 0-12.373 5.551-12.373 12.374 0 6.822 5.551 12.373 12.373 12.373 6.823 0 12.374-5.551 12.374-12.373 0-6.823-5.55-12.374-12.374-12.374z"/><circle fill="#e67c32" cx="3292.23" cy="25.95" r="6.02"/><path fill="#E6E7E8" d="M3288.941 37.877c-5.23-1.444-9.084-6.242-9.084-11.925 0-6.823 5.551-12.374 12.373-12.374 1.131 0 2.227.156 3.268.441l.637-2.316a14.75 14.75 0 0 0-3.904-.527c-8.146 0-14.775 6.628-14.775 14.776 0 6.788 4.603 12.518 10.85 14.242l.635-2.317z"/><path fill="#FEB480" d="M3293.814 20.147a6.016 6.016 0 0 0-3.19 11.602l3.19-11.602z"/></g><g><path fill="#f1f1f2" d="M3103.969 55.985c22.085-8.284 21.058-35.702 21.058-35.702-.099-1.412-.512-2.488-1.049-3.304l-.217-.305c-3.322-5.1-10.924-8.664-19.771-8.664-8.965 0-16.651 3.661-19.901 8.87l-.061.093c-.54.816-.955 1.895-1.055 3.313 0 0-1.027 27.418 21.058 35.702"/><g fill="#E6E7E8"><path d="M3125.026 20.283c-.099-1.412-.512-2.488-1.049-3.304l-.217-.305c-3.321-5.097-10.919-8.661-19.761-8.664v47.961c22.054-8.296 21.027-35.688 21.027-35.688zM3104 55.987l.031.002-.031-.013v.011z"/></g><path fill="#6C75E2" d="M3099.381 29.042l-2.541 2.416 7.16 7.187v-4.984z"/><path fill="#FEB480" d="M3116.167 26.443l-2.537-2.412-9.63 9.63v4.984l2.839-2.85v.011z"/><path fill="#FFF" d="M3122.875 21.641c-.083-1.182-.415-2.222-.99-3.094l-.183-.257c-3.078-4.723-10.053-7.782-17.71-7.792v.729c7.417.01 14.154 2.942 17.107 7.474l.184.258c.5.758.79 1.675.863 2.726.001.027.006.167.006.405.014 3.844-.767 23.372-17.397 30.306-.248.104-.502.204-.771.307l.03.769.794-.312a6.93 6.93 0 0 0 .244-.098c7.262-3.029 12.438-8.746 15.385-16.992 2.289-6.405 2.449-12.321 2.444-13.982 0-.273-.006-.424-.006-.447z"/><path fill="#d1d3d4" d="M3104.001 52.697l-.005.002c-9.798-3.745-14.207-11.938-16.181-18.156-2.148-6.768-1.965-12.792-1.963-12.848.074-1.06.367-1.982.87-2.743l.058-.088c2.895-4.64 9.65-7.638 17.212-7.638h.009v-.729h-.009c-7.807 0-14.805 3.131-17.826 7.974l-.053.08c-.572.865-.905 1.908-.988 3.104-.002.061-.197 6.19 1.991 13.093 1.979 6.241 6.388 14.507 16.157 18.445l.665.26.063.014v-.77z"/></g><g><path fill="#E6E7E8" d="M983.531 52.587l16.938-5.992V14.909l-16.938 5.992z"/><path opacity=".7" fill="#d1d3d4" d="M983.531 52.587l16.938-5.992V14.909z"/><path fill="#f1f1f2" d="M967.742 15.315l.012.011a1.25 1.25 0 0 0-1.16.785v29.611l.008-.007c0 .524.322.973.78 1.158l16.149 5.714V20.901l-15.789-5.586zM1016.688 20.647l-16.22-5.739v31.686l15.658 5.54c.286.065.527.011.59-.005a1.25 1.25 0 0 0 .689-.893V21.637a1.244 1.244 0 0 0-.717-.99z"/><path fill="#FEB480" d="M972.67 40.751v-.927l2.605.915v.942zM976.396 42.051v-.928l2.604.916v.941zM980.284 43.379v-.928l2.606.915v.942zM1002.924 39.516v-.928l2.605.916v.941zM1011.942 44.462l-2.698-4.325-.002-.003.001-.002-1.545-2.48-1.273-.413 2.23 3.629.005-.006.99 1.603.003-.004.91 1.513z"/><path fill="#FEB480" d="M1007.764 42.967l1.869-2.032.003-.003.002.001 1.87-2.032-.914-.301-1.822 1.961.007.002-1.282 1.381.005.002-.652.704z"/><path fill="#e67c32" d="M994.367 40.751v-.927l-2.605.915v.942zM998.028 39.494v-.928l-2.604.915v.942zM990.642 42.051v-.928l-2.605.916v.941zM986.752 43.379v-.928l-2.605.915v.942zM1000.469 37.811l-1.303.457v.942l1.303-.465z"/><path fill="#FEB480" d="M1000.469 37.811v.934l1.302.465v-.942z"/><path fill="#6C75E2" d="M1000.469 11.413c-4.95 0-8.977 4.026-8.977 8.976 0 1.899.586 3.714 1.696 5.252l.084.115 5.447 7.872.079.105a2.02 2.02 0 0 0 3.341-.014l.052-.062 5.454-7.88.029-.035a8.902 8.902 0 0 0 1.771-5.353c0-4.95-4.027-8.976-8.976-8.976zm.039 13.126a4.401 4.401 0 1 1 0-8.803 4.401 4.401 0 0 1 0 8.803z"/><path opacity=".7" fill="#3a43ae" d="M1000.469 24.537a4.4 4.4 0 0 1 0-8.8v-4.323c-4.95 0-8.977 4.026-8.977 8.976 0 1.899.586 3.714 1.696 5.252l.084.115 5.447 7.872.079.105c.379.547 1 .875 1.665.875h.005V24.537z"/></g><g><path fill="#FEB480" d="M797.29 237.434l22.802-2.41-3.208-30.368-39.009 4.788 3.888 9.197z"/><path fill="#d1d3d4" d="M821.685 212.806h-5.541v30.538h5.541c.69 0 1.25-.559 1.25-1.249v-28.039c0-.69-.56-1.25-1.25-1.25z"/><path fill="#6C75E2" d="M777.5 209.29h43.1v31.28h-43.1z"/><path opacity=".7" fill="#3a43ae" d="M817.739 212.02c-.042-.004-.083-.013-.126-.013h-40.119v18.717h-1.706v9.847h43.073v-27.315c0-.064-.009-.125-.019-.187-.286-.699-.979-1-1.103-1.049z"/><path fill="#E6E7E8" d="M816.924 212.806h-40.983c-.69 0-1.25.56-1.25 1.25V242.095c0 .69.56 1.249 1.25 1.249h40.983c.69 0 1.25-.559 1.25-1.249v-28.039c0-.69-.559-1.25-1.25-1.25z"/><path fill="#f1f1f2" d="M775.196 243.093l42.328-29.537c-.179-.099-.381-.75-.6-.75h-40.983c-.69 0-1.25.56-1.25 1.25V242.095c.001.409.201.769.505.998z"/><path fill="#FFF" d="M816.924 212.696h-40.983c-.69 0-1.25.559-1.25 1.249v.86c0-.69.56-1.25 1.25-1.25h40.983c.69 0 1.25.559 1.25 1.25v-.86c0-.69-.56-1.249-1.25-1.249z"/><path opacity=".7" fill="#3a43ae" d="M818.86 230.13h1.73v.69h-1.73z"/><path fill="#FFF" d="M817.313 243.282a1.24 1.24 0 0 0 .86-1.132v-28.205c0-.69-.56-1.25-1.25-1.25h-.86c.69 0 1.25.56 1.25 1.25v29.337z"/><path fill="#f1f1f2" d="M824.059 224.963H814.093c-.69 0-1.25.56-1.25 1.25v2.664c0 .69.559 1.25 1.25 1.25H824.059c.69 0 1.25-.56 1.25-1.25v-2.664c0-.691-.56-1.25-1.25-1.25z"/><circle fill="#FEB480" cx="815.44" cy="227.54" r="1.3"/></g><g><path fill="#E6E7E8" d="M2929.934 53.152V34.953l-16.849-16.848a1.223 1.223 0 0 0-.741-.349v-.011H2912v7.241a3.667 3.667 0 0 1 0 7.332V58.26h12.086l5.848-5.108z"/><path fill="#f1f1f2" d="M2929.934 53.152h-3.927c-1.061 0-1.921.86-1.921 1.922v3.182l5.848-5.104z"/><path fill="#FFF" d="M2926.007 53.643h3.364l.563-.491h-3.927c-1.061 0-1.921.86-1.921 1.922v.491c0-1.062.86-1.922 1.921-1.922z"/><path fill="#f1f1f2" d="M2912 32.318a3.665 3.665 0 0 1 0-7.332v-7.241h-.265a1.24 1.24 0 0 0-.821.36l-16.848 16.848V57.01c0 .69.56 1.25 1.25 1.25H2912V32.318z"/><path fill="#d1d3d4" d="M2916.364 21.384h-.998a3.477 3.477 0 0 0-3.473 3.472v.137c.38-.015.806.029 1.25.176v-.313c0-1.226.997-2.223 2.223-2.223h2.247l-1.249-1.249z"/><path fill="#6C75E2" d="M2917.439 14.658h-9.092a2.226 2.226 0 0 1-2.223-2.223v-.365c0-1.226.997-2.223 2.223-2.223h1.199a3.477 3.477 0 0 0 3.472-3.473h-.003l.002-.01a.625.625 0 0 0-1.249 0l.001.01a2.225 2.225 0 0 1-2.223 2.223h-1.199a3.477 3.477 0 0 0-3.473 3.472v.365a3.478 3.478 0 0 0 3.473 3.473h9.092c1.226 0 2.223.997 2.223 2.223v.365a2.225 2.225 0 0 1-2.223 2.223h-2.74a3.477 3.477 0 0 0-3.472 3.473V26.73h.007a.622.622 0 0 0 1.241 0h.001v-.016l.002-.02-.002-.019V24.19c0-1.226.997-2.223 2.223-2.223h2.74a3.477 3.477 0 0 0 3.472-3.472v-.365a3.475 3.475 0 0 0-3.472-3.472z"/><path fill="#e67c32" d="M2912.531 43.933v-3.494a3.783 3.783 0 0 1 1.962.891.686.686 0 0 0 .44.165c.393 0 .712-.334.712-.745a.662.662 0 0 0-.238-.53c-.798-.684-1.687-1.047-2.876-1.175v-1.109c0-.3-.244-.545-.545-.545-.339 0-.595.234-.595.545v1.091c-2.043.14-3.464 1.418-3.464 3.122 0 2.155 1.987 2.723 3.464 3.128v3.945c-1.157-.145-2.012-.708-2.528-1.159a.654.654 0 0 0-.439-.165c-.41 0-.695.401-.695.762 0 .216.084.41.236.546.9.812 2.084 1.288 3.427 1.377v1.04c0 .311.256.545.595.545a.546.546 0 0 0 .545-.545v-1.042c3.274-.281 3.53-2.598 3.53-3.304 0-2.15-1.738-2.836-3.531-3.344zm1.974 3.461c0 .771-.521 1.65-1.974 1.828v-3.625c1.188.365 1.974.818 1.974 1.797zm-3.113-7.009v3.245c-1.18-.354-1.907-.747-1.907-1.564-.001-.909.763-1.578 1.907-1.681z"/><defs><path id="u" d="M2906.92 35.71h5.08v17.6h-5.08z"/></defs><clipPath id="v"><use xlink:href="#u" overflow="visible"/></clipPath><path clip-path="url(#v)" fill="#FEB480" d="M2912.531 43.933v-3.494a3.783 3.783 0 0 1 1.962.891.686.686 0 0 0 .44.165c.393 0 .712-.334.712-.745a.662.662 0 0 0-.238-.53c-.798-.684-1.687-1.047-2.876-1.175v-1.109c0-.3-.244-.545-.545-.545-.339 0-.595.234-.595.545v1.091c-2.043.14-3.464 1.418-3.464 3.122 0 2.155 1.987 2.723 3.464 3.128v3.945c-1.157-.145-2.012-.708-2.528-1.159a.654.654 0 0 0-.439-.165c-.41 0-.695.401-.695.762 0 .216.084.41.236.546.9.812 2.084 1.288 3.427 1.377v1.04c0 .311.256.545.595.545a.546.546 0 0 0 .545-.545v-1.042c3.274-.281 3.53-2.598 3.53-3.304 0-2.15-1.738-2.836-3.531-3.344zm1.974 3.461c0 .771-.521 1.65-1.974 1.828v-3.625c1.188.365 1.974.818 1.974 1.797zm-3.113-7.009v3.245c-1.18-.354-1.907-.747-1.907-1.564-.001-.909.763-1.578 1.907-1.681z"/><path fill="#d1d3d4" d="M2924.086 54.862l-.939 3.398h.939z"/></g><g><path fill="#f1f1f2" d="M1974.98 17.667l-22.617-10.691a1.24 1.24 0 0 0-.578.023l-22.795 10.778 22.987 10.859 23.032-10.905-.029-.064z"/><path fill="#E6E7E8" d="M1928.99 17.78v27.734l.006-.007c0 .526.325.976.785 1.161l-.018-.004 22.214 10.385v-28.41L1928.99 17.78z"/><path fill="#f1f1f2" d="M1952.022 28.639v28.409l22.286-10.418.46-.55.242-.778V17.73z"/><path fill="none" d="M1952.022 28.639v28.409l22.988-10.747V17.73z"/><path fill="#f1f1f2" d="M1928.99 35.668l9.08-13.027-9.08-4.314z"/><path fill="#FEB480" d="M1963.619 14.137l-6.541-3.101h-.023l-17.746 8.418-.002.002-.526.248-.07.04 6.537 3.093.027.013 17.746-8.419h.001l.525-.249z"/><path fill="#6C75E2" d="M1937.201 24.207v10.471l6.537 3.093.028.013V27.389z"/><path fill="#E6E7E8" d="M1974.225 46.661c.461-.185.785-.634.785-1.161V27.948l-18.977 27.225 18.224-8.52-.032.008z"/><path fill="#FFF" d="M1974.98 17.667l-.575-.272-22.384 10.622-22.372-10.548-.651.311h-.008v.621l23.033 10.86 22.987-10.908v-.623z"/></g><g fill-rule="evenodd" clip-rule="evenodd"><g fill="#f1f1f2"><path d="M778.347 42.084c-.017 0-.034.004-.05.005v8.218h43.219v-8.223h-43.169zM821.417 41.143c.014 0 .026.003.04.003l-13.008-14.029v-3.934h-4.371v3.221h-8.344v-3.223l-4.37.007v3.929l-13.005 14.026h43.058z"/></g><path fill="#E6E7E8" d="M791.364 27.117l-7.983 14.026h-5.084zM808.448 27.117l7.984 14.026h5.084zM778.3 42.08h5.02v8.22h-5.02zM816.44 42.08h5.02v8.22h-5.02z"/><path fill="#FEB480" d="M820.701 25.287c-4.143 0-7.031-.623-8.631-1.096-.049 3.128 1.36 4.019 1.36 4.019 3.969 2.658 8.272.958 8.272.958 1.068-.887 1.365-2.344 1.264-3.943-.791.041-1.548.062-2.265.062zM779.287 25.287c-.713 0-1.467-.02-2.254-.061-.102 1.599.195 3.056 1.264 3.942 0 0 4.304 1.699 8.272-.958 0 0 1.41-.892 1.36-4.022-1.596.473-4.489 1.099-8.642 1.099z"/><path fill="#6C75E2" d="M812.134 23.084c1.686.52 5.314 1.346 10.713 1.075-.54-3.411-2.462-7.032-2.462-7.032s-5.553-3.256-20.291-3.434h-.188c-14.737.178-20.291 3.434-20.291 3.434s-1.923 3.622-2.462 7.033c5.405.27 9.033-.56 10.712-1.079-.024-.827.203-3.841 4.712-4.812 0 0 2.804-.652 7.329-.652h.188c4.525 0 7.329.652 7.329.652 4.515.972 4.737 3.994 4.711 4.815z"/><path opacity=".7" fill="#3a43ae" d="M790.355 18.569c-4.794 1.032-5.045 4.232-5.02 5.12 1.083-.2 1.932-.423 2.529-.608-.024-.827.203-3.841 4.712-4.812 0 0 .291-.067.835-.159-1.949.203-3.056.459-3.056.459zM809.644 18.569c4.794 1.032 5.045 4.232 5.02 5.12a22.447 22.447 0 0 1-2.53-.608c.025-.827-.203-3.841-4.711-4.812 0 0-.291-.067-.835-.159 1.949.203 3.056.459 3.056.459z"/><circle fill="#e67c32" cx="795.32" cy="30.68" r="1.34"/><circle fill="#e67c32" cx="800" cy="30.68" r="1.34"/><circle fill="#e67c32" cx="804.68" cy="30.68" r="1.34"/><circle fill="#e67c32" cx="795.32" cy="34.42" r="1.34"/><circle fill="#e67c32" cx="800" cy="34.42" r="1.34"/><circle fill="#e67c32" cx="804.68" cy="34.42" r="1.34"/><circle fill="#e67c32" cx="795.32" cy="38.1" r="1.34"/><circle fill="#e67c32" cx="800" cy="38.1" r="1.34"/><circle fill="#e67c32" cx="804.68" cy="38.1" r="1.34"/><path fill="#E6E7E8" d="M791.36 23.19h4.37v3.22h-4.37zM804.08 23.19h4.37v3.22h-4.37z"/></g><g><path fill="#f1f1f2" d="M1184 201.745c-12.291 0-22.255 9.964-22.255 22.255 0 4.281 1.211 8.278 3.307 11.673l-1.281 9.618 9.832-1.771c3.241 1.843 6.403 2.734 10.397 2.734 12.292 0 22.255-9.964 22.255-22.255s-9.963-22.254-22.255-22.254z"/><path fill="#E6E7E8" d="M1184 201.745v44.51c12.292 0 22.255-9.964 22.255-22.255s-9.963-22.255-22.255-22.255z"/><path fill="#6C75E2" d="M1184.1 244.558c-3.468 0-6.891-.874-9.914-2.53l-8.89 1.55 1.029-9.141a20.628 20.628 0 0 1-2.888-10.542c0-11.393 9.27-20.662 20.663-20.662s20.662 9.269 20.662 20.662c0 11.393-9.269 20.663-20.662 20.663zm-9.664-3.999l.218.123a19.27 19.27 0 0 0 9.445 2.471c10.618 0 19.257-8.639 19.257-19.258 0-10.618-8.639-19.257-19.257-19.257-10.619 0-19.258 8.639-19.258 19.257 0 3.545.97 7.009 2.807 10.018l.125.206-.873 7.753 7.536-1.313z"/><path fill="#FEB480" d="M1183.427 231.361h-.06c-1.059 0-1.947.86-1.979 1.918a1.962 1.962 0 0 0 .541 1.412 1.96 1.96 0 0 0 1.376.627l.06.001a1.994 1.994 0 0 0 1.979-1.919c.033-1.072-.845-2.005-1.917-2.039zm5.492-16.346c-1.13-.998-2.721-1.555-4.601-1.612-2.516-.076-4.737.748-6.433 2.375a1.406 1.406 0 0 0-.419.985c-.011.361.134.73.398 1.01.259.275.604.439.945.45h.046c.369 0 .694-.133.903-.364 1.188-1.149 2.556-1.682 4.224-1.63 2.071.063 3.378 1.137 3.329 2.735-.044 1.438-1.292 2.258-2.612 3.126-1.495.982-3.189 2.096-3.257 4.301-.009.309.075 1.004.348 1.652.346.823.869 1.269 1.512 1.288l.04.001c.686 0 1.24-.552 1.262-1.256.009-.291-.1-.568-.204-.836-.084-.215-.163-.418-.158-.577.037-1.223 1.183-1.967 2.51-2.829 1.733-1.126 3.697-2.403 3.781-5.146.042-1.412-.531-2.717-1.614-3.673z"/><g fill="#e67c32"><path d="M1184 231.469v3.742a2 2 0 0 0 1.345-1.811c.026-.873-.551-1.654-1.345-1.931zM1188.919 215.015c-1.13-.998-2.721-1.555-4.601-1.612-.107-.004-.213-.003-.318-.003v2.831c2.061.069 3.36 1.141 3.312 2.734-.044 1.438-1.292 2.258-2.612 3.126-.231.151-.466.307-.699.468v6.583c.351-.221.589-.608.604-1.064.009-.291-.1-.568-.204-.836-.084-.215-.163-.418-.158-.577.037-1.223 1.183-1.967 2.51-2.829 1.733-1.126 3.697-2.403 3.781-5.146.041-1.414-.532-2.719-1.615-3.675z"/></g></g><g><path fill="#f1f1f2" d="M1396.491 206.986h-40.982c-.69 0-1.25.56-1.25 1.25v34.53c0 .69.56 1.25 1.25 1.25h40.982c.69 0 1.25-.56 1.25-1.25v-34.53c0-.69-.559-1.25-1.25-1.25z"/><path fill="#e67c32" d="M1397.741 216.122v-7.886c0-.69-.56-1.25-1.25-1.25h-40.982c-.69 0-1.25.56-1.25 1.25v7.886h43.482z"/><path fill="#E6E7E8" d="M1355.509 244.017h40.982c.69 0 1.25-.56 1.25-1.25v-26.645l-43.259 27.356c.226.325.601.539 1.027.539z"/><path fill="#FEB480" d="M1393.172 206.986h-37.663c-.69 0-1.25.56-1.25 1.25v7.886h24.467l14.446-9.136z"/><path fill="#6C75E2" d="M1360.982 209.702a1.068 1.068 0 0 1-2.136 0v-4.65a1.068 1.068 0 0 1 2.136 0v4.65zM1393.17 209.702a1.069 1.069 0 0 1-2.136 0v-4.65a1.068 1.068 0 0 1 2.136 0v4.65z"/><path fill="#d1d3d4" d="M1362.56 222.59h5.44v3.33h-5.44zM1384.01 222.59h5.45v3.33h-5.45zM1373.28 222.59h5.45v3.33h-5.45zM1362.56 228.61h5.44v3.33h-5.44z"/><path fill="#6C75E2" d="M1384.01 228.61h5.45v3.33h-5.45z"/><path opacity=".55" fill="#6C75E2" d="M1384.01 228.61h5.45v3.33h-5.45z"/><path fill="#d1d3d4" d="M1373.28 228.61h5.45v3.33h-5.45zM1362.56 234.63h5.44v3.33h-5.44z"/><path fill="#6C75E2" d="M1384.01 234.63h5.45v3.33h-5.45z"/><path opacity=".55" fill="#6C75E2" d="M1384.01 234.63h5.45v3.33h-5.45z"/><path fill="#6C75E2" d="M1373.28 234.63h5.45v3.33h-5.45z"/><path opacity=".55" fill="#6C75E2" d="M1373.28 234.63h5.45v3.33h-5.45z"/><path fill="#6C75E2" d="M1387.519 222.586l-3.509 2.22v1.109h5.445v-3.329zM1373.279 231.591v.347h5.446v-3.329h-.731zM1363.206 237.962h4.8v-3.036z"/></g><g><path fill="#E6E7E8" d="M1593.348 209.373l-12.337-3.89v32.931l11.783 3.716a1.248 1.248 0 0 0 1.228-1.247v-30.394c-.001-.502-.237-.891-.674-1.116z"/><path opacity=".7" fill="#d1d3d4" d="M1593.881 209.896l-12.869 28.516 11.79 3.718h-.001c1.136-.083 1.216-1.136 1.216-1.136l.005.017v-30.536a1.58 1.58 0 0 0-.141-.579z"/><path fill="#f1f1f2" d="M1568 242.517v-32.932l13.011-4.102v32.931z"/><path fill="#E6E7E8" d="M1568 242.517v-32.932l-13.01-4.102v32.931z"/><path fill="#f1f1f2" d="M1542.866 209.306c-.522.222-.913.71-.887 1.283v30.345c0 .658.523 1.19 1.176 1.213l11.835-3.732v-32.931l-12.124 3.822z"/><path opacity=".7" fill="#d1d3d4" d="M1554.99 238.414l13.01 4.103v-32.932z"/><path fill="#FEB480" d="M1561.753 220.261a9.986 9.986 0 0 1-1.99.16l-.019.888c.726.015 1.454-.043 2.169-.174l-.16-.874zm-3.884.845l.272.05c.179.03.358.056.538.078l.106-.882c-.166-.02-.331-.044-.495-.071l-.241-.044-.256-.054c-.315-.07-.645-.16-.959-.263l-.277.843c.347.114.69.208 1.055.29l.257.053zm7.101-1.024l-.411-.787a9.899 9.899 0 0 1-1.854.742l.245.854a10.882 10.882 0 0 0 2.02-.809zm2.612-1.904l-.623-.632c-.475.468-.997.889-1.556 1.254l.486.743a10.893 10.893 0 0 0 1.693-1.365zm-18.107-7.064l-.879.126c.103.719.277 1.427.523 2.111l.836-.3a9.782 9.782 0 0 1-.48-1.937zm2.578 5.403l-.705.54c.441.577.94 1.109 1.487 1.587l.584-.669c-.503-.439-.96-.928-1.366-1.458zm-2.562-8.373l-.878-.137a11.02 11.02 0 0 0-.118 2.166l.888-.029a10.1 10.1 0 0 1 .108-2zm.839 5.811l-.803.381c.311.656.689 1.281 1.126 1.861l.71-.534a9.79 9.79 0 0 1-1.033-1.708zm33.062 4.072l.681-.57a10.854 10.854 0 0 0-1.556-1.52l-.554.694a10.14 10.14 0 0 1 1.429 1.396zm1.546 2.535l.818-.344c-.28-.67-.631-1.311-1.04-1.91l-.733.501c.376.549.698 1.138.955 1.753zm.726 2.876l.885-.086a10.854 10.854 0 0 0-.428-2.133l-.849.261c.197.638.328 1.294.392 1.958zm-10.143-8.976l-.021-.888c-.727.017-1.451.106-2.159.267l.197.866c.65-.147 1.316-.229 1.983-.245zm3.187-.483a10.899 10.899 0 0 0-2.143-.377l-.065.886a9.961 9.961 0 0 1 1.967.346l.241-.855zm2.944 1.335a10.78 10.78 0 0 0-1.934-.996l-.324.827c.62.243 1.216.551 1.774.914l.484-.745zm-1.367 17.971l.405.791a10.873 10.873 0 0 0 1.826-1.181l-.554-.694a9.967 9.967 0 0 1-1.677 1.084zm-2.813.941l.151.875a10.82 10.82 0 0 0 2.096-.586l-.324-.827a9.99 9.99 0 0 1-1.923.538zm-1.472.144l-.245.003-.261-.003a9.846 9.846 0 0 1-.992-.075l-.11.882c.362.045.718.072 1.091.081l.262.004.277-.004c.182-.005.362-.014.544-.026l-.065-.886c-.168.011-.334.019-.501.024zm-3.685-20.241c-.689.23-1.355.53-1.983.895l.444.769a9.888 9.888 0 0 1 1.82-.821l-.281-.843zm-1.035 20.169c.661.301 1.354.533 2.062.694l.197-.866a9.795 9.795 0 0 1-1.892-.637l-.367.809zm13.214-5.107l.779.427c.35-.638.634-1.31.848-2.005l-.849-.261a9.843 9.843 0 0 1-.778 1.839zm1.218-4.78c0 .68-.065 1.337-.198 1.994l.87.177c.145-.71.217-1.444.217-2.159l-.889-.012zm-3.015 7.143l.619.637c.521-.507.99-1.064 1.4-1.665l-.733-.5a10.087 10.087 0 0 1-1.286 1.528zm-21.855-3.118a9.961 9.961 0 0 1 1.967.346l.241-.854a10.896 10.896 0 0 0-2.144-.377l-.064.885zm7.726 4.101c.543.481 1.135.909 1.764 1.272l.444-.769a10.003 10.003 0 0 1-1.619-1.169l-.589.666zm-4.833-3.443a9.923 9.923 0 0 1 1.775.913l.483-.744a10.78 10.78 0 0 0-1.934-.996l-.324.827zm-10.063-9.789c.592.421 1.227.782 1.891 1.076l.359-.813a9.904 9.904 0 0 1-1.734-.987l-.516.724zm13.186 10.581l-.554.694c.521.416 1 .885 1.429 1.396l.681-.57a10.854 10.854 0 0 0-1.556-1.52zm3.096-13.563l-.518-.721a10.99 10.99 0 0 0-1.631 1.438l.651.604c.454-.488.957-.931 1.498-1.321z"/><path fill="#e67c32" d="M1561.753 220.261a9.986 9.986 0 0 1-1.99.16l-.019.888c.726.015 1.454-.043 2.169-.174l-.16-.874zM1564.97 220.082l-.411-.787a9.899 9.899 0 0 1-1.854.742l.245.854a10.882 10.882 0 0 0 2.02-.809zM1567.582 218.178l-.623-.632c-.475.468-.997.889-1.556 1.254l.486.743a10.893 10.893 0 0 0 1.693-1.365zM1557.869 221.106l.272.05c.179.03.358.056.538.078l.106-.882c-.166-.02-.331-.044-.495-.071l-.241-.044-.256-.054c-.315-.07-.645-.16-.959-.263l-.277.843c.347.114.69.208 1.055.29l.257.053zM1585.664 223.438l.885-.086a10.854 10.854 0 0 0-.428-2.133l-.849.261c.197.638.328 1.294.392 1.958zM1584.938 220.562l.818-.344c-.28-.67-.631-1.311-1.04-1.91l-.733.501c.376.549.698 1.138.955 1.753zM1583.392 218.027l.681-.57a10.854 10.854 0 0 0-1.556-1.52l-.554.694a10.14 10.14 0 0 1 1.429 1.396zM1568 216.841c-.064.066-.131.132-.194.2l.194.181v-.381zM1581.652 215.314a10.613 10.613 0 0 0-.641-.382v1.03c.052.033.105.063.157.097l.484-.745zM1582.697 231.554l.619.637c.521-.507.99-1.064 1.4-1.665l-.733-.5a10.087 10.087 0 0 1-1.286 1.528zM1581.012 232.871v1.03a10.99 10.99 0 0 0 1.505-1.006l-.554-.694c-.304.242-.622.465-.951.67zM1568 230.941a10.872 10.872 0 0 0-1.142-1.056l-.554.694c.521.416 1 .885 1.429 1.396l.267-.224v-.81zM1584.494 229.191l.779.427c.35-.638.634-1.31.848-2.005l-.849-.261a9.843 9.843 0 0 1-.778 1.839zM1585.712 224.411c0 .68-.065 1.337-.198 1.994l.87.177c.145-.71.217-1.444.217-2.159l-.889-.012zM1563.735 229.094a9.923 9.923 0 0 1 1.775.913l.483-.744a10.78 10.78 0 0 0-1.934-.996l-.324.827zM1560.731 225.477l-.913-.301-1.38 1.485-1.515-2.433-1.274-.414 2.167 3.527-1.094 1.179.004.001-.653.705.915.316 1.315-1.428.572.926.003-.004.91 1.514 1.379.487-2.243-3.596z"/><path fill="#e67c32" d="M1560.842 228.436a9.961 9.961 0 0 1 1.967.346l.241-.854a10.896 10.896 0 0 0-2.144-.377l-.064.885zM1554.99 219.095v1.01c.188.097.379.19.572.276l.359-.813a9.803 9.803 0 0 1-.931-.473z"/><path fill="#6C75E2" d="M1546.736 233.198l.979-.664c-.681-1-1.512-1.897-2.457-2.651l-.737.924a10.94 10.94 0 0 1 2.215 2.391zM1548.492 237.698l1.17-.172a11.994 11.994 0 0 0-1.061-3.456l-1.065.514c.475.981.797 2.035.956 3.114zM1588.342 214.793l-1.469.999a12.951 12.951 0 0 0 2.628 2.837l1.108-1.388a11.195 11.195 0 0 1-2.267-2.448zM1586.546 210.189l-1.758.259c.188 1.28.573 2.533 1.136 3.699l1.6-.772a10.982 10.982 0 0 1-.978-3.186zM1584.787 206.674a13.02 13.02 0 0 0-.138 1.881h1.776c0-.448.028-.895.081-1.338l-1.719-.543zM1594.021 219.096a11 11 0 0 1-2.061-.93l-.893 1.536c.926.54 1.922.959 2.953 1.251v-1.857zM1541.98 228.021v1.272c.419.177.826.379 1.22.608l.594-1.022a12.075 12.075 0 0 0-1.814-.858zM1549.764 240.063c.017-.254.027-.507.027-.76l-1.182-.015c0 .39-.021.775-.063 1.158l1.218-.383z"/></g><g><path fill="#E6E7E8" d="M2356.492 215.947h-40.984a1.25 1.25 0 0 0-1.249 1.25v24.201c0 .689.56 1.249 1.249 1.249h40.984a1.25 1.25 0 0 0 1.249-1.249v-24.201c0-.69-.559-1.25-1.249-1.25z"/><g fill="#f1f1f2"><path d="M2357.741 217.329v-.132c0-.321-.125-.611-.323-.832l.323.964zM2357.412 216.358a1.242 1.242 0 0 0-.92-.411h-40.984a1.25 1.25 0 0 0-1.249 1.25v24.201c0 .34.137.646.356.872l42.797-25.912z"/></g><path fill="#f1f1f2" d="M2316.215 214.528h35.439l-1.92-8.404a.992.992 0 0 0-1.188-.746l-31.746 7.251a.993.993 0 0 0-.747 1.189l.162.71z"/><path fill="#6C75E2" d="M2314.26 219.85h43.48v6.12h-43.48z"/><path fill="#FEB480" d="M2340 235.25h3.18v3.18H2340zM2344.91 235.25h3.18v3.18h-3.18z"/><path fill="#e67c32" d="M2349.73 235.25h3.18v3.18h-3.18z"/><path fill="#FEB480" d="M2351.606 214.528l-1.19-5.406-24.57 5.406z"/><path opacity=".55" fill="#3a43ae" d="M2351.606 219.851l-10.074 6.122h16.209v-6.122z"/></g><g><path fill="#E6E7E8" d="M2538.529 237.468l2.332 7.465h5.832l3.165-9.004zM2535.425 237.468l-2.333 7.465h-5.83l-3.166-9.004z"/><circle fill="#6C75E2" cx="2509.52" cy="226.34" r="5.77"/><path fill="#6C75E2" d="M2509.517 233.604c-6.257 0-11.328 5.072-11.328 11.329h22.657c0-6.257-5.073-11.329-11.329-11.329z"/><path fill="#f1f1f2" d="M2554.506 226.837c0 1.566.354 3.651-.935 4.478-2.796 1.792-2.983 3.323-3.874 5.073-1.93 3.795-7.91 4.445-13.066 4.445-9.871 0-17.874-6.267-17.874-13.996s8.003-13.996 17.874-13.996 17.875 6.266 17.875 13.996z"/><path fill="#f1f1f2" d="M2557.806 229.964a1.35 1.35 0 0 1-1.351 1.351h-4.996a1.35 1.35 0 0 1-1.351-1.351v-6.347a1.35 1.35 0 0 1 1.351-1.351h4.996a1.35 1.35 0 0 1 1.351 1.351v6.347zM2548.785 210.521a6.322 6.322 0 0 0-6.322 6.322h6.322v-6.322z"/><path fill="#d1d3d4" d="M2542.4 216.361c0-.406-.249-.744-.585-.844l.001-.003a1.055 1.055 0 0 1-.026-.006l-.037-.008a24.337 24.337 0 0 0-5.291-.614c-1.842 0-3.627.214-5.324.613v.002c-.363.078-.638.432-.638.859 0 .041.006.08.012.119a.996.996 0 0 0-.012.135c0 .484.352.876.785.876.033 0 .063-.007.095-.011l.009.001.013-.003a23.223 23.223 0 0 1 5.06-.553c1.739 0 3.323.168 4.927.524a.728.728 0 0 0 .154.033l.033.007v-.003c.013 0 .025.004.039.004.434 0 .785-.392.785-.876a.896.896 0 0 0-.011-.138.71.71 0 0 0 .011-.114z"/><circle fill="#FEB480" cx="2536.55" cy="207.34" r="4.27"/><circle fill="#d1d3d4" cx="2546.75" cy="223.1" r="1.72"/><path fill="#E6E7E8" d="M2557.806 229.701h-2.438s-2-.125-3.624 1.516l-1.046 1.546c-.218.478-.745 1.262-1 1.764-1.93 3.795-7.91 4.445-13.066 4.445-9.404 0-17.106-5.688-17.815-12.909-.035.359-.059.721-.059 1.087 0 7.729 8.003 13.996 17.874 13.996 5.156 0 11.137-.651 13.066-4.445.255-.502.453-.985.67-1.462 0 0 1.449-3.436 4.406-3.924h1.682c-.001-.001 1.461-.036 1.35-1.614z"/><path opacity=".55" fill="#3a43ae" d="M2508.37 244.933h12.476c0-3.861-1.934-7.27-4.884-9.314l-7.592 9.314zM2510.484 220.652a5.767 5.767 0 0 0-6.341 7.78l6.341-7.78z"/></g><g><path fill="#6C75E2" d="M2728.473 212.77H2714.428a.524.524 0 0 0-.525.525v1.521h12.912v16.95H2728.473a.524.524 0 0 0 .525-.525V213.293a.524.524 0 0 0-.525-.523z"/><path fill="none" stroke="#FEB480" stroke-width="3.25" stroke-miterlimit="10" d="M2736.07 236.409c-3.713 4.802-9.53 7.895-16.07 7.895-11.213 0-20.303-9.091-20.303-20.304s9.09-20.304 20.303-20.304 20.303 9.091 20.303 20.304"/><path fill="#FEB480" d="M2737.887 234.068l-4.303.544 4.848 3.758z"/><path fill="#f1f1f2" d="M2724.87 216.234H2710.823a.526.526 0 0 0-.525.525V229.68l6.166 5.552H2724.87c.29 0 .525-.235.525-.525V216.759a.525.525 0 0 0-.525-.525z"/><path fill="#E6E7E8" d="M2725.221 216.371a.523.523 0 0 0-.351-.137H2710.823a.526.526 0 0 0-.525.525V229.68l2.885 2.597 12.038-15.906z"/><path fill="#d1d3d4" d="M2716.465 235.23V230.149a.471.471 0 0 0-.471-.471h-5.696l6.167 5.552z"/><path fill="#FFF" d="M2715.994 229.679h-5.696l.602.542H2715.994c.26 0 .471.21.471.47v-.541a.471.471 0 0 0-.471-.471z"/></g><g><path fill="#f1f1f2" d="M53.741 408.194v-10.505c0-.69-.56-1.25-1.25-1.25H11.509c-.69 0-1.25.56-1.25 1.25V408.194h43.482z"/><defs><path id="w" d="M53.741 408.194v-10.505c0-.69-.56-1.25-1.25-1.25H11.509c-.69 0-1.25.56-1.25 1.25V408.194h43.482z"/></defs><clipPath id="x"><use xlink:href="#w" overflow="visible"/></clipPath><path opacity=".6" clip-path="url(#x)" fill="#d1d3d4" d="M49.256 396.021l-11.23 40.782h16.936v-40.782z"/><path fill="#f1f1f2" d="M10.26 409.61h43.48v11.77H10.26z"/><defs><path id="y" d="M10.26 409.61h43.48v11.77H10.26z"/></defs><clipPath id="z"><use xlink:href="#y" overflow="visible"/></clipPath><path opacity=".6" clip-path="url(#z)" fill="#d1d3d4" d="M49.258 396.021l-11.23 40.782h16.936v-40.782z"/><path fill="#f1f1f2" d="M10.259 422.803v11.508c0 .69.56 1.25 1.25 1.25h40.982c.69 0 1.25-.56 1.25-1.25v-11.508H10.259z"/><defs><path id="A" d="M10.259 422.803v11.508c0 .69.56 1.25 1.25 1.25h40.982c.69 0 1.25-.56 1.25-1.25v-11.508H10.259z"/></defs><clipPath id="B"><use xlink:href="#A" overflow="visible"/></clipPath><path opacity=".6" clip-path="url(#B)" fill="#d1d3d4" d="M49.257 396.021l-11.23 40.782h16.936v-40.782z"/><defs><path id="C" d="M10.259 422.803V434.311c0 .69.56 1.25 1.25 1.25h40.982c.69 0 1.25-.56 1.25-1.25v-11.508H10.259z"/></defs><clipPath id="D"><use xlink:href="#C" overflow="visible"/></clipPath><path clip-path="url(#D)" fill="#E6E7E8" d="M14.744 435.979l11.23-40.782H9.038v40.782z"/><defs><path id="E" d="M10.26 409.61h43.48v11.77H10.26z"/></defs><clipPath id="F"><use xlink:href="#E" overflow="visible"/></clipPath><path clip-path="url(#F)" fill="#E6E7E8" d="M14.742 434.977l11.23-40.783H9.036v40.783z"/><g><defs><path id="G" d="M53.741 408.194V397.689c0-.69-.56-1.25-1.25-1.25H11.509c-.69 0-1.25.56-1.25 1.25V408.194h43.482z"/></defs><clipPath id="H"><use xlink:href="#G" overflow="visible"/></clipPath><path clip-path="url(#H)" fill="#E6E7E8" d="M14.743 435.979l11.23-40.782H9.037v40.782z"/></g><circle fill="#FEB480" cx="16.14" cy="402.25" r="3.63"/><circle fill="#FEB480" cx="16.14" cy="415.59" r="3.63"/><circle fill="#e67c32" cx="16.14" cy="429.18" r="3.63"/><path fill="#6C75E2" d="M22.89 400.39h28.32v3.81H22.89z"/><path opacity=".55" fill="#3a43ae" d="M48.054 400.386l-1.05 3.811h4.21v-3.811z"/><path fill="#6C75E2" d="M22.89 413.59h28.32v3.81H22.89z"/><path opacity=".55" fill="#3a43ae" d="M44.419 413.593l-1.05 3.811h7.845v-3.811z"/><path fill="#6C75E2" d="M22.89 427.28h28.32v3.81H22.89z"/><path opacity=".55" fill="#3a43ae" d="M40.65 427.276l-1.049 3.811h11.613v-3.811z"/></g><g><path fill="#E6E7E8" d="M244.491 397.484h-40.982c-.69 0-1.25.56-1.25 1.25v34.531c0 .69.56 1.25 1.25 1.25h40.982c.69 0 1.25-.56 1.25-1.25v-34.531c0-.69-.559-1.25-1.25-1.25z"/><g fill="#f1f1f2"><path d="M245.741 399.447v-.713c0-.211-.058-.406-.149-.58l.149 1.293zM245.586 398.143a1.245 1.245 0 0 0-1.095-.658h-40.982c-.69 0-1.25.56-1.25 1.25v34.531c0 .354.148.671.384.898l42.943-36.021z"/></g><path fill="#d1d3d4" d="M233.607 428.55c-.428 0-.775-.311-.775-.692v-23.715c0-.383.348-.692.775-.692.428 0 .775.31.775.692v23.715c.001.381-.347.692-.775.692zM227.137 428.55c-.429 0-.775-.311-.775-.692v-23.715c0-.383.347-.692.775-.692.428 0 .774.31.774.692v23.715c0 .381-.347.692-.774.692zM220.667 428.55c-.429 0-.775-.311-.775-.692v-23.715c0-.383.347-.692.775-.692.429 0 .775.31.775.692v23.715c0 .381-.346.692-.775.692zM214.196 428.55c-.429 0-.776-.311-.776-.692v-23.715c0-.383.348-.692.776-.692.428 0 .774.31.774.692v23.715c.001.381-.346.692-.774.692z"/><path fill="#FEB480" d="M232.371 411.708c-.57 0-1.033-.463-1.033-1.034v-3.031c0-.571.463-1.034 1.033-1.034h3.032c.571 0 1.033.463 1.033 1.034v3.031c0 .571-.462 1.034-1.033 1.034h-3.032z"/><path fill="#e67c32" d="M219.15 411.708c-.57 0-1.033-.463-1.033-1.034v-3.031c0-.571.463-1.034 1.033-1.034h3.032c.571 0 1.034.463 1.034 1.034v3.031c0 .571-.463 1.034-1.034 1.034h-3.032z"/><path fill="#d1d3d4" d="M207.729 428.55c-.428 0-.775-.311-.775-.692v-23.715c0-.383.348-.692.775-.692.429 0 .775.31.775.692v23.715c0 .381-.347.692-.775.692z"/><path fill="#FEB480" d="M206.213 411.708a1.034 1.034 0 0 1-1.034-1.034v-3.031c0-.571.463-1.034 1.034-1.034h3.031c.571 0 1.034.463 1.034 1.034v3.031c0 .571-.463 1.034-1.034 1.034h-3.031z"/><path fill="#6C75E2" d="M225.62 425.232a1.033 1.033 0 0 1-1.033-1.033v-3.032c0-.571.462-1.034 1.033-1.034h3.032c.571 0 1.033.463 1.033 1.034v3.032c0 .57-.462 1.033-1.033 1.033h-3.032z"/><path opacity=".55" fill="#3a43ae" d="M225.62 425.232a1.033 1.033 0 0 1-1.033-1.033v-3.032c0-.571.462-1.034 1.033-1.034h3.032c.571 0 1.033.463 1.033 1.034v3.032c0 .57-.462 1.033-1.033 1.033h-3.032z"/><path fill="#d1d3d4" d="M240.078 428.55c-.429 0-.775-.311-.775-.692v-23.715c0-.383.347-.692.775-.692.428 0 .774.31.774.692v23.715c.001.381-.346.692-.774.692z"/><path fill="#6C75E2" d="M238.562 425.232a1.034 1.034 0 0 1-1.034-1.033v-3.032c0-.571.463-1.034 1.034-1.034h3.032c.57 0 1.033.463 1.033 1.034v3.032c0 .57-.463 1.033-1.033 1.033h-3.032zM212.68 425.232c-.57 0-1.033-.463-1.033-1.033v-3.032c0-.571.463-1.034 1.033-1.034h3.032c.571 0 1.034.463 1.034 1.034v3.032c0 .57-.463 1.033-1.034 1.033h-3.032z"/><path fill="#d1d3d4" d="M234.628 434.516h9.863c.69 0 1.25-.56 1.25-1.25v-8.073l-11.113 9.323z"/></g><g><path fill="#FEB480" d="M397.415 421.203c0-3.648 2.755-6.353 6.06-6.955.831-.151 2.001-.164 2.969.22l-.002-.002c.063-5.062 3.076-8.448 3.076-8.448l-.001.005c1.672-2.144 4.051-3.752 6.773-4.669a11.432 11.432 0 0 0-7.68-2.95c-5.506 0-10.104 3.879-11.215 9.053a7.464 7.464 0 1 0-3.793 13.892h3.813v-.146z"/><path fill="#E6E7E8" d="M437.562 411.382a8.264 8.264 0 0 0-4.219 1.152c-1.235-5.753-6.348-10.067-12.471-10.067-7.045 0-12.757 5.712-12.757 12.758 0 .579.043 1.148.117 1.708a6.018 6.018 0 1 0-3.301 11.05h32.63c4.584 0 8.3-3.716 8.3-8.3s-3.715-8.301-8.299-8.301z"/><path fill="#6C75E2" d="M431.485 424.026h2.327l-6.148-6.147-6.147 6.147h2.327l-.005 7.591v.91c0 .591.479 1.069 1.069 1.069h5.513c.591 0 1.069-.479 1.069-1.069v-.91l-.005-7.591z"/><path fill="#f1f1f2" d="M407.614 427.981l23.846-19.871a12.742 12.742 0 0 0-10.588-5.644c-7.045 0-12.757 5.712-12.757 12.758 0 .579.043 1.148.117 1.708a6.018 6.018 0 1 0-3.301 11.05h2.683z"/></g><g><path fill="#6C75E2" d="M1175.478 406.229c0 .69-.56 1.25-1.25 1.25h-8.986c-.69 0-1.25-.56-1.25-1.25v-8.985c0-.69.56-1.249 1.25-1.249h8.986c.69 0 1.25.559 1.25 1.249v8.985z"/><path fill="#e67c32" d="M1175.478 420.493c0 .69-.56 1.249-1.25 1.249h-8.986a1.25 1.25 0 0 1-1.25-1.249v-8.985c0-.69.56-1.25 1.25-1.25h8.986c.69 0 1.25.56 1.25 1.25v8.985z"/><path fill="#E6E7E8" d="M1189.742 406.229c0 .69-.56 1.25-1.25 1.25h-8.986a1.25 1.25 0 0 1-1.249-1.25v-8.985c0-.69.559-1.249 1.249-1.249h8.986c.69 0 1.25.559 1.25 1.249v8.985z"/><path fill="#6C75E2" d="M1189.742 420.493c0 .69-.56 1.249-1.25 1.249h-8.986c-.69 0-1.249-.559-1.249-1.249v-8.985c0-.69.559-1.25 1.249-1.25h8.986c.69 0 1.25.56 1.25 1.25v8.985z"/><path opacity=".55" fill="#3a43ae" d="M1189.742 420.493c0 .69-.56 1.249-1.25 1.249h-8.986c-.69 0-1.249-.559-1.249-1.249v-8.985c0-.69.559-1.25 1.249-1.25h8.986c.69 0 1.25.56 1.25 1.25v8.985z"/><path fill="#FEB480" d="M1204.007 420.493c0 .69-.56 1.249-1.25 1.249h-8.985a1.25 1.25 0 0 1-1.25-1.249v-8.985c0-.69.56-1.25 1.25-1.25h8.985c.69 0 1.25.56 1.25 1.25v8.985z"/><path fill="#E6E7E8" d="M1189.742 434.757c0 .69-.56 1.249-1.25 1.249h-8.986c-.69 0-1.249-.559-1.249-1.249v-8.985c0-.69.559-1.25 1.249-1.25h8.986c.69 0 1.25.56 1.25 1.25v8.985z"/><path fill="#6C75E2" d="M1204.007 434.757c0 .69-.56 1.249-1.25 1.249h-8.985a1.25 1.25 0 0 1-1.25-1.249v-8.985c0-.69.56-1.25 1.25-1.25h8.985c.69 0 1.25.56 1.25 1.25v8.985z"/></g><g><path fill="#6C75E2" d="M1385.639 429.649a1.257 1.257 0 0 1 1.948-1.588l5.435 6.664a1.257 1.257 0 0 1-1.949 1.589l-5.434-6.665z"/><path opacity=".55" fill="#3a43ae" d="M1385.639 429.649a1.257 1.257 0 0 1 1.948-1.588l5.435 6.664a1.257 1.257 0 0 1-1.949 1.589l-5.434-6.665z"/><path fill="#E6E7E8" d="M1387.959 423.336l-12.917-15.886-6.673 5.441 8.493 10.445z"/><path fill="#f1f1f2" d="M1372.086 410.406l10.514 12.93h5.359l-12.917-15.886z"/><path fill="#FEB480" d="M1373.726 405.869l-7.388-9.062a4.303 4.303 0 0 0-6.057-.615 4.303 4.303 0 0 0-.616 6.056l7.388 9.062 6.673-5.441z"/><path fill="#6C75E2" d="M1387.959 423.336h-11.097l7.453 9.165a4.302 4.302 0 0 0 6.056.615 4.304 4.304 0 0 0 .617-6.056l-3.029-3.724z"/><path fill="#d1d3d4" d="M1375.614 408.178l-6.673 5.441 1.643 2.02 6.702-5.429z"/><path opacity=".55" fill="#3a43ae" d="M1382.542 423.336h-5.679l7.453 9.165a4.302 4.302 0 0 0 6.056.615c.025-.021.046-.043.071-.063l-7.901-9.717z"/><path fill="#e67c32" d="M1360.497 396.033c-.072.053-.146.102-.216.159a4.303 4.303 0 0 0-.616 6.056l7.388 9.062 3.502-2.855-10.058-12.422z"/><path fill="#FEB480" d="M1367.485 415.55a1.943 1.943 0 1 1-2.456-3.012l10.304-8.401a1.943 1.943 0 1 1 2.456 3.012l-10.304 8.401z"/></g><g><path fill="#E6E7E8" d="M1588.491 397.484h-40.983c-.69 0-1.25.56-1.25 1.25v34.531c0 .69.56 1.25 1.25 1.25h40.983c.69 0 1.25-.56 1.25-1.25v-34.531c0-.69-.559-1.25-1.25-1.25z"/><g fill="#f1f1f2"><path d="M1589.474 397.971l.226.459a1.249 1.249 0 0 0-.226-.459zM1589.46 397.954a1.243 1.243 0 0 0-.969-.47h-40.983c-.69 0-1.25.56-1.25 1.25v34.531c0 .258.078.498.212.696l42.99-36.007z"/></g><path fill="#d1d3d4" d="M1578.627 434.516h9.864c.69 0 1.25-.56 1.25-1.25v-8.073l-11.114 9.323z"/><path fill="#6C75E2" d="M1589.741 405.873v-7.139c0-.69-.56-1.25-1.25-1.25h-40.983c-.69 0-1.25.56-1.25 1.25v7.139h43.483z"/><circle fill="#FEB480" cx="1550.84" cy="401.93" r="1.78"/><circle fill="#FEB480" cx="1556.22" cy="401.93" r="1.78"/><circle fill="#e67c32" cx="1561.57" cy="401.93" r="1.78"/><path fill="#FEB480" d="M1558.665 423.749a9.795 9.795 0 0 1-.479-2.37h3.308l1.932-1.618c.048-1.158.188-2.27.412-3.289h3.515l1.155-.967v-4.696c.96.261 1.84 1.198 2.529 2.578l.741-.621c-.354-.664-.751-1.24-1.188-1.698a9.81 9.81 0 0 1 2.17.875l.77-.646a10.762 10.762 0 0 0-5.491-1.502l-.05.002-.026-.002c-.028 0-.056.004-.084.004-5.894.087-10.663 4.905-10.663 10.819 0 1.327.242 2.599.681 3.773l.768-.642zm8.905-12.976v4.762h-3.498c.745-2.622 2.035-4.476 3.498-4.762zm-2.288.353c-.938 1.01-1.7 2.541-2.194 4.409h-3.524a9.93 9.93 0 0 1 5.718-4.409zm-2.414 5.346a20.695 20.695 0 0 0-.403 3.971h-4.308a9.816 9.816 0 0 1 .911-3.971h3.8z"/><g fill="#6C75E2"><path d="M1572.76 411.942a9.964 9.964 0 0 1 2.264 1.69l.664-.664a10.904 10.904 0 0 0-2.158-1.672l-.77.646z"/><path d="M1575.688 412.969l-.664.664a9.959 9.959 0 0 1 1.49 1.902h-3.676a12.98 12.98 0 0 0-1.061-2.77l-.741.621c.315.631.591 1.354.817 2.148h-3.346v-.03l-1.155.967h.218v3.971h-4.168c.002-.229.014-.455.023-.682l-1.932 1.618h.984a20.11 20.11 0 0 0 .459 3.7h-3.715a9.716 9.716 0 0 1-.556-1.33l-.768.644a10.856 10.856 0 0 0 2.495 3.873 10.794 10.794 0 0 0 7.487 3.172c.028 0 .056.004.084.004l.026-.002.05.002c5.968 0 10.823-4.855 10.823-10.823a10.79 10.79 0 0 0-3.174-7.649zm-8.118 17.494c-1.403-.273-2.647-1.992-3.404-4.446h3.404v4.446zm0-5.384h-3.659a21.507 21.507 0 0 1-.062-.271l-1.208 1.209h.534c.495 1.725 1.223 3.142 2.107 4.093a9.894 9.894 0 0 1-4.227-2.507 9.96 9.96 0 0 1-1.292-1.586h2.877l1.208-1.209a19.027 19.027 0 0 1-.434-3.429h4.154v3.7zm9.44-8.607a9.815 9.815 0 0 1 .91 3.971h-4.46a20.697 20.697 0 0 0-.402-3.971h3.952zm-8.503 0h3.58l.017.081c.258 1.197.407 2.514.419 3.89h-4.016v-3.971zm0 4.907h4.002a18.975 18.975 0 0 1-.495 3.7h-3.507v-3.7zm0 9.049v-4.411h3.251c-.728 2.364-1.909 4.046-3.251 4.411zm2.083-.259c.908-.952 1.656-2.393 2.161-4.152h3.564a9.931 9.931 0 0 1-5.725 4.152zm6.267-5.09h-3.868a20.11 20.11 0 0 0 .459-3.7h4.444a9.792 9.792 0 0 1-1.035 3.7z"/></g><path opacity=".55" fill="#3a43ae" d="M1580.009 405.873h9.732v-7.139c0-.296-.107-.564-.28-.779l-9.452 7.918z"/></g><g><path fill="#E6E7E8" d="M2131.827 222.546H2113.429c-.393 0-.712.439-.763 1.007l6.27 6.27-6.27 6.27c.051.568.37 1.007.763 1.007H2131.827c.427 0 .773-.52.773-1.161v-12.231c.001-.642-.346-1.162-.773-1.162z"/><path fill="#d1d3d4" d="M2124.958 234.105l6.869 2.994s.773 0 .773-1.271v-1.724h-7.642z"/><path fill="#E6E7E8" d="M2156.173 222.546H2174.571c.393 0 .712.439.763 1.007l-6.27 6.27 6.27 6.27c-.051.568-.37 1.007-.763 1.007H2156.173c-.427 0-.773-.52-.773-1.161v-12.231c-.001-.642.346-1.162.773-1.162z"/><path fill="#d1d3d4" d="M2163.042 234.105l-6.869 2.994s-.773 0-.773-1.271v-1.724h7.642z"/><path fill="#E6E7E8" d="M2164.443 210.9h-40.902c-.641 0-1.161.52-1.161 1.161V233.033c0 .641.521 1.161 1.161 1.161h40.902c.642 0 1.161-.521 1.161-1.161v-20.972a1.16 1.16 0 0 0-1.161-1.161z"/><g fill="#f1f1f2"><path d="M2165.517 211.621a1.169 1.169 0 0 0-.325-.441l.325.441zM2165.174 211.165a1.151 1.151 0 0 0-.73-.265h-40.902c-.641 0-1.161.52-1.161 1.161V233.033c0 .271.097.517.253.715l42.54-22.583z"/></g><path fill="#6C75E2" d="M2133.811 222.036c-.839-.228-1.563-.424-1.563-1.009 0-.573.531-.973 1.291-.973.646 0 1.228.197 1.683.568.089.076.206.12.322.12a.537.537 0 0 0 .517-.527.53.53 0 0 0-.186-.397c-.594-.495-1.381-.756-2.273-.756-1.432 0-2.47.848-2.47 2.017 0 1.411 1.255 1.752 2.361 2.053.911.248 1.698.461 1.698 1.185 0 .515-.394 1.065-1.498 1.065a2.76 2.76 0 0 1-1.846-.722.49.49 0 0 0-.322-.11c-.319 0-.517.284-.517.548 0 .155.061.296.173.396.657.577 1.516.882 2.481.882 1.949 0 2.644-1.101 2.644-2.13.001-1.532-1.383-1.908-2.495-2.21z"/><path fill="#FEB480" d="M2141.755 219.637a.847.847 0 0 0-.785-.535.865.865 0 0 0-.807.536l-2.363 5.898a.579.579 0 0 0-.04.208c0 .313.26.568.579.568a.56.56 0 0 0 .519-.352l.485-1.231h3.254l.485 1.233c.088.212.291.35.519.35.341 0 .578-.3.578-.568a.578.578 0 0 0-.039-.208l-2.385-5.899zm.493 4.1h-2.567l1.288-3.256 1.279 3.256z"/><path fill="#6C75E2" d="M2149.91 225.258h-2.762v-5.628a.527.527 0 0 0-.526-.527c-.313 0-.559.232-.559.527v5.888c0 .404.329.733.732.733h3.114a.492.492 0 0 0 .486-.507.486.486 0 0 0-.485-.486z"/><path fill="#e67c32" d="M2156.631 225.258h-3.214v-2.131h3.142a.486.486 0 0 0 .486-.486.492.492 0 0 0-.486-.507h-3.142v-1.978h3.214a.486.486 0 0 0 .486-.486.491.491 0 0 0-.486-.506h-3.566a.734.734 0 0 0-.732.732v5.621c0 .404.329.733.732.733h3.566a.492.492 0 0 0 .486-.507.487.487 0 0 0-.486-.485z"/></g><g><circle fill="#f1f1f2" cx="1952" cy="224" r="23.52"/><path fill="#E6E7E8" d="M1952 200.482v47.035c12.988 0 23.518-10.529 23.518-23.518s-10.53-23.517-23.518-23.517z"/><path fill="#FEB480" d="M1952 245.495c-11.899 0-21.58-9.681-21.58-21.58s9.681-21.58 21.58-21.58 21.58 9.681 21.58 21.58-9.681 21.58-21.58 21.58zm0-41.786c-11.142 0-20.206 9.064-20.206 20.206s9.064 20.206 20.206 20.206 20.206-9.064 20.206-20.206c0-11.141-9.064-20.206-20.206-20.206z"/><path fill="#e67c32" d="M1952 202.335v1.375c11.142 0 20.206 9.064 20.206 20.206s-9.064 20.206-20.206 20.206v1.374c11.899 0 21.58-9.681 21.58-21.58s-9.681-21.581-21.58-21.581z"/><path fill="#6C75E2" d="M1965.044 219.958a.982.982 0 0 0-.958-.982v-.001h-8.539l-2.567-7.747h-.003a.984.984 0 0 0-1.931 0l-2.568 7.747h-8.538a.984.984 0 0 0-.512 1.822v.001l6.879 4.971-2.574 7.931-.017.052-.005.016.001.001a.983.983 0 0 0 1.597.994l6.703-4.83 6.704 4.83.014-.009a.983.983 0 0 0 1.509-1.22l-2.521-7.764 6.879-4.971-.004-.015a.984.984 0 0 0 .451-.826z"/><path opacity=".55" fill="#3a43ae" d="M1965.044 219.958a.982.982 0 0 0-.958-.982v-.001h-8.539l-2.567-7.747h-.003a.984.984 0 0 0-.966-.793l-.011.001v19.505l.012-.009 6.704 4.83.014-.009a.983.983 0 0 0 1.509-1.22l-2.521-7.764 6.879-4.971-.004-.015a.981.981 0 0 0 .451-.825z"/></g><g><path fill="#f1f1f2" d="M2911.673 212.82c-.508.006-.89.357-.89.824v1.65c-3.092.213-5.242 2.147-5.242 4.727 0 3.263 3.007 4.122 5.242 4.736v5.971c-1.752-.219-3.045-1.07-3.826-1.754a.996.996 0 0 0-.666-.25c-.621 0-1.053.607-1.053 1.153 0 .327.127.62.358.826 1.363 1.229 3.155 1.95 5.187 2.085v1.575c0 .468.382.819.89.824V212.82zm-.89 9.445c-1.785-.536-2.887-1.13-2.887-2.368 0-1.377 1.156-2.39 2.887-2.545v4.913z"/><path fill="#E6E7E8" d="M2912.51 222.723v-5.289a5.73 5.73 0 0 1 2.97 1.35c.185.158.428.249.666.249.595 0 1.077-.506 1.077-1.128 0-.332-.133-.625-.359-.803-1.208-1.035-2.553-1.585-4.354-1.777v-1.68a.826.826 0 0 0-.825-.825l-.012.001v22.368l.012.001c.455 0 .825-.37.825-.825v-1.577c4.957-.426 5.344-3.932 5.344-5.002 0-3.256-2.629-4.294-5.344-5.063zm0 8.006v-5.488c1.798.553 2.986 1.239 2.986 2.721 0 1.168-.787 2.498-2.986 2.767z"/><path fill="#6C75E2" d="M2932.286 229.465l-3.175-.854a17.8 17.8 0 0 0 .604-4.61c0-9.769-7.946-17.716-17.716-17.716a17.622 17.622 0 0 0-9.932 3.044l-1.847-2.721a20.9 20.9 0 0 1 11.778-3.61c11.582 0 21.004 9.422 21.004 21.003a20.954 20.954 0 0 1-.716 5.464z"/><path fill="#FEB480" d="M2911.992 245.002c-3.066 0-6.118-.68-8.971-2.029a20.864 20.864 0 0 1-10.793-11.914 20.89 20.89 0 0 1-.564-12.307l3.183.822a17.61 17.61 0 0 0 .478 10.378c1.593 4.456 4.826 8.024 9.104 10.049s9.086 2.262 13.542.669a17.84 17.84 0 0 0 4.138-2.122l1.871 2.702a21.054 21.054 0 0 1-4.902 2.516 21.035 21.035 0 0 1-7.086 1.236z"/><path fill="#6C75E2" d="M2898.561 209.578l4.259.817-3.443-5.077z"/><path fill="#FEB480" d="M2925.561 238.158l-4.268-.769 3.5 5.037z"/></g><g><path fill="#E6E7E8" d="M3279.719 232.505l1.062-1.062a15.96 15.96 0 0 1-2.066-2.537h4.604l1.934-1.934a30.46 30.46 0 0 1-.694-5.486h6.18l1.967-1.967v-5.884h5.729l.026.129 1.629-1.629h-.455c-.807-3.046-2.058-5.534-3.598-7.147a15.832 15.832 0 0 1 7.096 4.104l1.063-1.063a17.26 17.26 0 0 0-12.238-5.078l-.08.002-.042-.002c-.045 0-.09.005-.136.007-9.43.139-17.059 7.848-17.059 17.311-.002 4.775 1.941 9.101 5.078 12.236zm12.985-27.931c2.24.608 4.204 3.514 5.354 7.562h-5.354v-7.562zm-1.499 15.413h-6.669c.02-2.25.268-4.403.697-6.352h5.972v6.352zm0-15.469v7.618h-5.597c1.191-4.195 3.256-7.162 5.597-7.618zm-3.662.564c-1.499 1.615-2.719 4.065-3.51 7.054h-5.639a15.893 15.893 0 0 1 9.149-7.054zm-9.941 8.554h6.08c-.401 1.952-.627 4.093-.645 6.352h-6.893a15.703 15.703 0 0 1 1.458-6.352zm-1.413 7.85h6.867c.071 2.108.326 4.101.733 5.92h-5.943a15.714 15.714 0 0 1-1.657-5.92z"/><path fill="#d1d3d4" d="M3304.193 208.03l-1.062 1.063a15.956 15.956 0 0 1 2.383 3.043h-5.427l-1.629 1.629c.412 1.915.651 4.021.67 6.223h-6.425v-.468l-1.967 1.967h.468v5.92h-5.855c-.034-.143-.065-.289-.098-.434l-1.934 1.934h.854c.792 2.76 1.957 5.026 3.371 6.549a15.823 15.823 0 0 1-6.763-4.012l-1.062 1.062a17.265 17.265 0 0 0 11.979 5.074c.046.001.091.007.136.007l.042-.002.08.002c9.548 0 17.316-7.769 17.316-17.316a17.255 17.255 0 0 0-5.077-12.241zm-12.988 27.991c-2.246-.438-4.236-3.188-5.446-7.114h5.446v7.114zm15.104-22.385a15.718 15.718 0 0 1 1.456 6.352h-7.136a33.03 33.03 0 0 0-.645-6.352h6.325zm-13.605 7.85h6.403a30.175 30.175 0 0 1-.792 5.92h-5.611v-5.92zm0 14.478v-7.058h5.202c-1.166 3.783-3.056 6.475-5.202 7.058zm3.331-.414c1.454-1.523 2.65-3.827 3.458-6.644h5.702a15.875 15.875 0 0 1-9.16 6.644zm10.028-8.144h-6.188c.408-1.819.663-3.812.734-5.92h7.111a15.66 15.66 0 0 1-1.657 5.92z"/><path fill="#FEB480" d="M3316.356 244.125l1.005-.902-6.426-7.589 5.788-2.179-16.323-9.111 15.956 19.781z"/><path fill="#6C75E2" d="M3300.4 224.344l5.316 17.906 3.385-5.205 6.227 8.003 1.028-.923z"/></g><g><circle fill="#6C75E2" cx="590.07" cy="415.63" r="4.33"/><path fill="#E6E7E8" d="M614.204 398.072c0 .789-.161 1.541-.45 2.226a16.808 16.808 0 0 1 9.979 10.037 5.707 5.707 0 0 1 2.194-.438c.068 0 .136.003.203.005a19.228 19.228 0 0 0-11.932-12.001c.003.057.006.114.006.171z"/><path fill="#f1f1f2" d="M590.072 409.897c.777 0 1.52.156 2.196.438a16.798 16.798 0 0 1 10.817-10.32 5.694 5.694 0 0 1-.319-2.415 19.216 19.216 0 0 0-12.9 12.302c.069-.002.137-.005.206-.005z"/><circle fill="#e67c32" cx="608.48" cy="433.93" r="4.33"/><circle opacity=".7" fill="#3a43ae" cx="590.07" cy="415.63" r="4.33"/><circle fill="#FEB480" cx="608.48" cy="398.07" r="4.33"/><circle fill="#6C75E2" cx="625.93" cy="415.63" r="4.33"/><path fill="#f1f1f2" d="M625.928 421.355a5.68 5.68 0 0 1-1.971-.35 16.802 16.802 0 0 1-10.204 10.694c.29.685.451 1.438.451 2.228 0 .059-.003.116-.005.174a19.222 19.222 0 0 0 12.171-12.765 5.367 5.367 0 0 1-.442.019z"/><path fill="#E6E7E8" d="M602.746 433.928c0-.683.12-1.337.34-1.944a16.798 16.798 0 0 1-11.043-10.978 5.676 5.676 0 0 1-2.413.331 19.205 19.205 0 0 0 13.138 13.064 5.277 5.277 0 0 1-.022-.473z"/></g><g><path fill="#E6E7E8" d="M813.118 399.759c0 .69-.559 1.249-1.249 1.249H788.18a1.25 1.25 0 0 1-1.25-1.249v-3.007c0-.69.56-1.25 1.25-1.25h23.689c.69 0 1.249.56 1.249 1.25v3.007z"/><path fill="#f1f1f2" d="M820.491 407.199h-40.983c-.69 0-1.25.56-1.25 1.25v25.994c0 .689.56 1.249 1.25 1.249h40.983c.69 0 1.25-.56 1.25-1.249v-25.994c0-.69-.559-1.25-1.25-1.25z"/><path fill="#E6E7E8" d="M821.741 410.139l-43.942 24.15h43.944z"/><path fill="#E6E7E8" d="M778.34 410.82h43.4v6.5h-43.4zM823.659 432.941H776.342c-.69 0-1.25.56-1.25 1.25v1.057c0 .69.559 1.25 1.25 1.25H823.659c.69 0 1.25-.56 1.25-1.25v-1.057a1.251 1.251 0 0 0-1.25-1.25z"/><path fill="#6C75E2" d="M813.118 398.755l3.165 12.063.021.082h-.216a3.895 3.895 0 0 1-7.79 0h-.142l-.016-.126-1.363-12.019h6.341z"/><path fill="#FEB480" d="M808.141 410.788l-1.364-12.033h-6.778V410.9h.17a3.895 3.895 0 0 0 7.79 0h.199l-.017-.112zM793.292 398.755l-1.367 12.054-.01.091h-.215a3.895 3.895 0 0 1-7.791 0h-.165l.009-.043 3.175-12.102h6.364z"/><path fill="#6C75E2" d="M786.93 398.755l-3.176 12.106-.01.038h-.172a3.895 3.895 0 0 1-7.79 0v-.773l7.14-11.371h4.008"/><path fill="#FEB480" d="M813.118 398.755l3.176 12.106.01.038h.172a3.895 3.895 0 0 0 7.791 0v-.773l-7.14-11.371h-4.009"/><path fill="#6C75E2" d="M799.998 398.755V410.9h-.169a3.895 3.895 0 0 1-7.791 0l-.122-.001 1.376-12.144h6.706z"/><path opacity=".7" fill="#3a43ae" d="M775.782 410.139v.761a3.895 3.895 0 0 0 7.79 0h.172l.01-.038.19-.723h-8.162z"/><path fill="#e67c32" d="M783.941 410.139l-.188.718-.009.043h.165a3.895 3.895 0 0 0 7.791 0h.215l.01-.091.076-.67h-8.06z"/><path opacity=".7" fill="#3a43ae" d="M792.003 410.139l-.086.76.122.001a3.895 3.895 0 0 0 7.791 0h.169v-.761h-7.996z"/><path fill="#e67c32" d="M808.067 410.139h-8.069v.761h.169a3.895 3.895 0 0 0 7.79 0h.199l-.017-.111-.072-.65z"/><path opacity=".7" fill="#3a43ae" d="M816.104 410.139h-8.036l.072.635.015.126h.142a3.895 3.895 0 0 0 7.79 0h.216l-.021-.082-.178-.679z"/><path fill="#e67c32" d="M816.105 410.139l.189.723.01.038h.172a3.895 3.895 0 0 0 7.791 0v-.761h-8.162z"/><path fill="#d1d3d4" d="M782.69 420.08h7.97v12.86h-7.97z"/><path fill="#FFF" d="M823.659 432.941H776.342c-.69 0-1.25.56-1.25 1.25v.836c0-.69.559-1.25 1.25-1.25H823.659c.69 0 1.25.56 1.25 1.25v-.836a1.251 1.251 0 0 0-1.25-1.25z"/><path fill="#d1d3d4" d="M797.89 420.08h6.76v6.02h-6.76zM810.03 420.08h6.76v6.02h-6.76z"/><path fill="#d1d3d4" d="M796.97 425.24h8.65v.86h-8.65zM809.09 425.24h8.65v.86h-8.65z"/></g><g><path fill="#E6E7E8" d="M1974.231 417.745c-.32 0-.624.071-.896.2l-.173.092-6.721 3.963-.192.113.001.002-5.244 3.085s-1.1.787-3.482.787h-8.937a.925.925 0 1 1 0-1.85h11.184a2.627 2.627 0 0 0 0-5.255h-16.876c-1.144 0-2.519.499-3.408 1.288l-11.815 8.597v9.333l11.819-6.322s2.18-.761 6.052-.761h10.987s4.016.133 8.517-2.824l3.577-2.098-.001-.001.256-.155 6.411-3.762.123-.076a2.097 2.097 0 0 0 .913-1.731v-.529a2.095 2.095 0 0 0-2.095-2.096z"/><path fill="#FEB480" d="M1962.597 399.361c.105-5.688-4.902-5.461-4.902-5.461-3.088 0-5.704 3.943-5.704 3.943l-.068.078v15.617l.068-.035c10.765-6.809 10.606-14.142 10.606-14.142z"/><path fill="#6C75E2" d="M1951.922 397.922l-.005.004-.064-.082s-2.616-3.943-5.704-3.943c0 0-5.008-.227-4.902 5.461 0 0-.158 7.333 10.606 14.143l.069.035v-15.618z"/><path fill="#d1d3d4" d="M1946.989 431.018l3.516-5.03h-1.917a.925.925 0 1 1 0-1.85h3.211l3.673-5.255h-12.575c-1.144 0-2.519.499-3.408 1.288l-11.815 8.597v9.333l11.819-6.322s2.18-.761 6.052-.761h1.444z"/></g><g><path fill="#6C75E2" d="M2135.718 409.033c-1.204-3.974-4.895-6.867-9.262-6.867-5.345 0-9.678 4.333-9.678 9.678 0 5.344 4.333 9.678 9.678 9.678 1.164 0 2.28-.206 3.314-.584.01-4.856 2.344-9.175 5.948-11.905z"/><circle fill="#f1f1f2" cx="2145.23" cy="421.47" r="13.71"/><path fill="#d1d3d4" d="M2145.252 411.247c6.07 0 11.024 4.774 11.313 10.773.009-.184.015-.368.015-.554 0-6.257-5.072-11.328-11.328-11.328s-11.328 5.071-11.328 11.328c0 .186.005.37.014.554.29-5.999 5.244-10.773 11.314-10.773z"/><path fill="#d1d3d4" d="M2145.874 421.168v-3.518a3.82 3.82 0 0 1 1.976.897.685.685 0 0 0 .442.166c.396 0 .717-.337.717-.75a.668.668 0 0 0-.24-.534c-.802-.688-1.697-1.054-2.895-1.183v-1.116a.55.55 0 0 0-.549-.549h-.008c-.338.004-.592.238-.592.549v1.098c-2.056.142-3.486 1.428-3.486 3.144 0 2.17 2 2.741 3.486 3.149v3.971c-1.165-.145-2.024-.712-2.545-1.167a.663.663 0 0 0-.443-.166c-.412 0-.699.405-.699.768 0 .218.084.413.238.55.906.818 2.099 1.297 3.449 1.387v1.047c0 .312.254.545.592.549l.008.001a.55.55 0 0 0 .549-.55v-1.048c3.297-.284 3.554-2.616 3.554-3.327 0-2.166-1.748-2.856-3.554-3.368zm-1.148-.305c-1.188-.356-1.919-.752-1.919-1.575 0-.915.769-1.589 1.919-1.692v3.267zm1.148 5.63v-3.649c1.196.367 1.986.823 1.986 1.809 0 .777-.523 1.66-1.986 1.84z"/><path fill="#FEB480" d="M2128.891 414.896l-.054.013a.29.29 0 0 0-.075.022l-.022.008a2.448 2.448 0 0 1-1.12.275 2.66 2.66 0 0 1-.387-.054 48.265 48.265 0 0 1-.608-.108 89.42 89.42 0 0 0-.641-.112 3.134 3.134 0 0 0-.5-.055c-.088 0-.177.005-.266.013l-.376.036.258-.276.073-.083c.115-.135.211-.277.284-.424.072-.146.127-.308.158-.479.032-.172.05-.367.05-.578 0-.096-.012-.192-.034-.284l-.043-.178 1.438-.003a.196.196 0 0 0 .068-.018.369.369 0 1 0-.077-.721h-.012l-.019.001h-1.577l-.031-.101c-.165-.531-.249-.979-.249-1.333 0-.174.032-.341.096-.496.064-.155.153-.294.265-.412.111-.117.247-.211.406-.278a1.39 1.39 0 0 1 .535-.102c.798 0 1.22.38 1.291 1.16a.059.059 0 0 1 .002.013l.003.035-.001.008a.31.31 0 0 0 .015.069.484.484 0 0 0 .96-.011l.002-.067-.001-.018v-.01a2.3 2.3 0 0 0-.222-.828c-.119-.237-.276-.438-.468-.6s-.423-.284-.686-.367-.557-.124-.872-.124c-.342 0-.657.049-.938.146s-.526.238-.728.419c-.201.18-.36.405-.473.668a2.276 2.276 0 0 0-.168.887c0 .153.021.342.061.561.032.174.081.374.146.597l.054.184-.819-.002a.37.37 0 1 0-.004.735l.035.006 1.001.001.024.113c.038.175.058.353.058.53 0 .262-.025.495-.074.696-.049.2-.12.38-.212.534a1.64 1.64 0 0 1-.337.404 2.482 2.482 0 0 1-.456.305c-.272.091-.578.256-.526.544a.462.462 0 0 0 .506.375l.014-.004c.668-.306 1.274-.459 1.807-.459.069 0 .165.012.286.034a13.57 13.57 0 0 1 .844.192 21.347 21.347 0 0 0 .835.193c.119.024.209.036.278.036h.021c.537 0 1.107-.225 1.132-.233.053-.023.214-.083.214-.083a.465.465 0 0 0 .356-.555.468.468 0 0 0-.5-.357zm0 0M2159.942 396.82c-5.624 0-10.286 4.117-11.139 9.501 6.271 1.313 11.108 6.563 11.804 13.036 5.92-.345 10.614-5.252 10.614-11.258.001-6.229-5.049-11.279-11.279-11.279z"/><path opacity=".7" fill="#3a43ae" d="M2134.206 410.344a7.915 7.915 0 0 0-15.665 1.941 7.914 7.914 0 0 1 15.513-1.789c.053-.055.104-.104.152-.152z"/><path fill="#e67c32" d="M2159.963 398.771c-4.697 0-8.549 3.608-8.94 8.205l.111.042a8.975 8.975 0 0 1 17.793 1.168 8.976 8.976 0 0 0-8.964-9.415z"/><path fill="#6C75E2" d="M2162.685 410.842c-.549.576-1.25.895-1.978.895-1.19 0-2.222-.836-2.707-2.045h3.309a.52.52 0 0 0 0-1.039h-3.572a4.251 4.251 0 0 1 .009-1.105h3.563a.52.52 0 0 0 0-1.04h-3.281c.496-1.172 1.511-1.979 2.68-1.979.728 0 1.429.317 1.978.895a.518.518 0 1 0 .753-.715c-.747-.785-1.717-1.217-2.73-1.217-1.73 0-3.211 1.257-3.785 3.019h-1.392a.519.519 0 1 0 0 1.039h1.169a5.361 5.361 0 0 0-.007 1.105h-1.162a.52.52 0 0 0-.511.604c.158.127.341.278.525.435h1.356c.559 1.796 2.054 3.084 3.806 3.084 1.014 0 1.983-.433 2.729-1.218.198-.208.189-.537-.019-.734s-.537-.192-.733.016z"/></g><g><path fill="#f1f1f2" d="M992.147 413.413l-24.033.001 3.426 21.978c0 .677.549 1.226 1.227 1.226H1011.233c.677 0 1.226-.549 1.226-1.226l3.426-21.979h-23.738z"/><path fill="#E6E7E8" d="M1015.886 413.413H991.69l-23.575.001.407 2.615h46.956z"/><path fill="#f1f1f2" d="M1017.687 409.923h-51.375c-.677 0-1.226.549-1.226 1.227V412.516c0 .677.549 1.227 1.226 1.227h51.375c.677 0 1.226-.55 1.226-1.227v-1.366c0-.678-.549-1.227-1.226-1.227z"/><path fill="#6C75E2" d="M983.141 418.981h-1.214a.441.441 0 0 0-.441.441v12.143c0 .244.198.442.441.442h1.214a.441.441 0 0 0 .441-.442v-12.143a.442.442 0 0 0-.441-.441zM987.876 418.981h-1.214a.441.441 0 0 0-.441.441v12.143c0 .244.198.442.441.442h1.214a.441.441 0 0 0 .441-.442v-12.143a.441.441 0 0 0-.441-.441zM992.612 418.981h-1.214a.441.441 0 0 0-.441.441v12.143c0 .244.198.442.441.442h1.214a.442.442 0 0 0 .442-.442v-12.143a.443.443 0 0 0-.442-.441zM997.338 418.981h-1.214a.441.441 0 0 0-.441.441v12.143c0 .244.198.442.441.442h1.214a.441.441 0 0 0 .441-.442v-12.143a.441.441 0 0 0-.441-.441zM1002.074 418.981h-1.214a.442.442 0 0 0-.442.441v12.143c0 .244.198.442.442.442h1.214a.442.442 0 0 0 .442-.442v-12.143a.443.443 0 0 0-.442-.441z"/><path fill="#FEB480" d="M1003.147 396.166h-22.299c-.616 0-1.116.488-1.116 1.091s.5 1.091 1.116 1.091h22.3c.617 0 1.116-.488 1.116-1.091s-.5-1.091-1.117-1.091z"/><path fill="#6C75E2" d="M997.279 397.882c0 .69-.56 1.249-1.25 1.249h-8.06a1.25 1.25 0 0 1-1.25-1.249v-1.249c0-.69.56-1.25 1.25-1.25h8.06c.69 0 1.25.56 1.25 1.25v1.249z"/><g fill="#E6E7E8"><path d="M971.497 435.108l-.049-.316a1.01 1.01 0 0 0 .049.316zM1011.224 436.019H972.768c-.568 0-1.109-.387-1.271-.91l.044.283c0 .677.549 1.226 1.226 1.226H1011.223c.677 0 1.227-.549 1.227-1.226l.043-.251c-.175.507-.713.878-1.269.878zM1012.493 435.141c.038-.11.06-.228.06-.349l-.06.349z"/></g><path fill="#E6E7E8" d="M974.946 412.365l3.102-2.442h-2.332zM1009.066 412.365l-3.102-2.442h2.332z"/><path fill="#FEB480" d="M981.383 396.285a1.201 1.201 0 0 0-1.603.564l-.826 1.721-.633 1.32-.826 1.722-1.001 2.089-1.229 2.563-.825 1.722-.633 1.321-.825 1.722a1.202 1.202 0 0 0 2.166 1.04l.826-1.722.633-1.32.826-1.723 1.757-3.664.473-.987.826-1.722.633-1.32.825-1.722c.287-.6.035-1.318-.564-1.604zM1002.617 396.285a1.2 1.2 0 0 1 1.603.564l.826 1.721.633 1.32.826 1.722 1.001 2.089 1.229 2.563.825 1.722.633 1.321.825 1.722a1.201 1.201 0 0 1-2.167 1.04l-.826-1.722-.633-1.32-.826-1.723-1.757-3.664-.473-.987-.826-1.722-.633-1.32-.825-1.722a1.203 1.203 0 0 1 .565-1.604z"/></g><g><path fill="#f1f1f2" d="M1762.69 432.848c0-6.542 5.304-11.846 11.846-11.846 2.826 0 5.42.992 7.456 2.644l1.894-12.146h-47.771l3.427 21.978c0 .678.549 1.227 1.226 1.227h22.069a11.74 11.74 0 0 1-.147-1.857z"/><path fill="#E6E7E8" d="M1783.886 411.499H1736.114l.408 2.616H1760l23.478-.001z"/><path fill="#f1f1f2" d="M1785.688 408.009H1734.314c-.678 0-1.227.549-1.227 1.226v1.367c0 .677.549 1.226 1.227 1.226H1785.688c.677 0 1.226-.549 1.226-1.226v-1.367a1.227 1.227 0 0 0-1.226-1.226z"/><path fill="#FEB480" d="M1771.147 394.252h-22.3c-.616 0-1.116.488-1.116 1.091s.5 1.091 1.116 1.091h22.3c.616 0 1.116-.488 1.116-1.091s-.499-1.091-1.116-1.091z"/><path fill="#6C75E2" d="M1765.279 395.968c0 .69-.56 1.249-1.25 1.249h-8.06c-.69 0-1.249-.559-1.249-1.249v-1.25c0-.69.559-1.249 1.249-1.249h8.06c.69 0 1.25.559 1.25 1.249v1.25z"/><path fill="#E6E7E8" d="M1739.497 433.194l-.05-.316c0 .109.019.215.05.316zM1780.493 433.227c.038-.111.06-.228.06-.349l-.06.349zM1742.945 410.45l3.103-2.441h-2.332zM1777.066 410.45l-3.102-2.441h2.333z"/><path fill="#FEB480" d="M1749.383 394.371a1.2 1.2 0 0 0-1.603.563l-.826 1.722-.633 1.32-.826 1.722-1.001 2.089-1.229 2.563-.826 1.722-.633 1.32-.825 1.722a1.201 1.201 0 1 0 2.166 1.04l.826-1.721.633-1.32.826-1.723 1.757-3.664.473-.987.826-1.722.633-1.32.826-1.722c.287-.6.034-1.318-.564-1.604zM1770.617 394.371a1.2 1.2 0 0 1 1.603.563l.825 1.722.634 1.32.826 1.722 1.001 2.089 1.229 2.563.826 1.722.633 1.32.825 1.722a1.203 1.203 0 0 1-2.167 1.04l-.825-1.721-.634-1.32-.825-1.723-1.757-3.664-.473-.987-.826-1.722-.633-1.32-.826-1.722a1.202 1.202 0 0 1 .564-1.604z"/><path fill="#E6E7E8" d="M1762.757 434.104h-21.989c-.568 0-1.109-.386-1.271-.909l.044.282c0 .678.549 1.227 1.227 1.227h22.068a12 12 0 0 1-.079-.6z"/><path fill="#FEB480" d="M1781.156 429.451l-1.888-1.796-7.166 7.167v.001l-3.439-3.438-1.891 1.798 5.33 5.348 2.112-2.12v.007z"/><g fill="#6C75E2"><path d="M1751.141 417.067h-1.214a.442.442 0 0 0-.442.441v12.143c0 .244.198.442.442.442h1.214a.441.441 0 0 0 .441-.442v-12.143a.442.442 0 0 0-.441-.441zM1765.78 424.87v-7.361a.442.442 0 0 0-.442-.441h-1.214a.442.442 0 0 0-.441.441v10.593a11.805 11.805 0 0 1 2.097-3.232zM1770.516 421.703v-4.194a.442.442 0 0 0-.441-.441h-1.215a.441.441 0 0 0-.441.441v5.194c.659-.398 1.36-.734 2.097-1zM1760.612 417.067h-1.215a.442.442 0 0 0-.441.441v12.143c0 .244.198.442.441.442h1.215a.441.441 0 0 0 .441-.442v-12.143a.441.441 0 0 0-.441-.441zM1755.877 417.067h-1.215a.441.441 0 0 0-.441.441v12.143c0 .244.197.442.441.442h1.215a.442.442 0 0 0 .441-.442v-12.143a.442.442 0 0 0-.441-.441z"/></g></g><g><path fill="#E6E7E8" d="M3081.677 220.859l-.693.328v14.157l.007-.007c0 .525.324.976.784 1.16l-.018-.004 22.214 10.385v-15.487l-22.294-10.532z"/><path fill="#f1f1f2" d="M3127.006 221.094l-22.648-10.707a1.27 1.27 0 0 0-.579.023l-22.795 10.777 22.987 10.859 23.035-10.906v-.046z"/><path fill="#f1f1f2" d="M3127.004 235.133v-14.04l-.645-.305-22.344 10.604v16.959l22.123-10.342c.027-.014.057-.025.082-.039l.08-.037.017-.02c.766-.479.687-1.39.687-1.39v-1.39z"/><path fill="#E6E7E8" d="M3080.983 222.003v14.812l.007-.007c0 .526.324.977.784 1.161l-.018-.004 22.214 10.385v-15.487l-22.987-10.86z"/><path fill="#6C75E2" d="M3102.41 202.285l.778 1.618.063.131-22.268 10.523v3.593l23.675-11.187.142.294.653 1.359 1.644-4.686z"/><path fill="#FEB480" d="M3099.167 201.086l-4.092-1.436.653 1.359-14.745 6.968v3.592l16.152-7.632.597 1.242z"/><path fill="#E6E7E8" d="M3093.812 215.123l-1.317.622 21.659 10.216 1.319-.626z"/><path fill="#E6E7E8" d="M3114.155 215.123l1.318.622-21.66 10.216-1.318-.626z"/><g fill="#E6E7E8"><path d="M3115.74 225.98v15.4M3116.299 242.607l-1.125.526v-16.411l1.125-.54z"/></g><g fill="#d1d3d4"><path d="M3092.25 225.98v15.4M3091.687 242.606l1.125.527v-16.411l-1.125-.54z"/></g><path fill="#E6E7E8" d="M3127.004 235.133v-8.356l-11.193 16.056-.002.004 10.33-4.828c.027-.014.057-.025.082-.039l.08-.037.017-.02c.766-.479.687-1.39.687-1.39v-1.39z"/><path fill="#FFF" d="M3125.703 220.478l-21.687 10.292-21.68-10.221-.648.307-.001-.001-.667.316 22.997 10.843 23-10.915z"/><path fill="#f1f1f2" d="M3081.018 221.172l-.034.016v15.626l.007-.007c0 .526.324.977.784 1.16l-.018-.004.431.202 8.629-12.373-9.799-4.62z"/></g><g><path fill="#FEB480" d="M1773.913 202.77h-34.56c-.69 0-1.25.56-1.25 1.25v39.961c0 .69.56 1.25 1.25 1.25h34.56c.69 0 1.25-.56 1.25-1.25V204.02a1.25 1.25 0 0 0-1.25-1.25z"/><path fill="#e67c32" d="M1739.68 205.27h.69v38.35h-.69z"/><path fill="#e67c32" d="M1740.37 242.94h32.57v.69h-32.57zM1739.68 204.58h33.95v.69h-33.95z"/><path fill="#e67c32" d="M1748.71 202.77h.69v2.5h-.69zM1764.29 202.77h.69v2.5h-.69z"/><path fill="#f1f1f2" d="M1740.372 205.268V242.935h32.573V205.268z"/><path fill="#E6E7E8" d="M1740.372 242.935h32.573V205.268h-.002z"/><path fill="#FFF" d="M1740.37 205.27h32.57v.9h-32.57z"/><path fill="#e67c32" d="M1772.94 205.27h.69v38.35h-.69zM1773.633 236.496l1.53-1.5v-1.097l-1.531 1.528z"/><path fill="#d1d3d4" d="M1772.945 237.044l-3.23 3.221-4.46 1.957-1.071-.509 8.761-5.897z"/><path fill="#6C75E2" d="M1766.227 236.34l3.282 3.238 9.36-9.319-3.281-3.238z"/><path opacity=".55" fill="#3a43ae" d="M1767.893 237.996l1.616 1.582 9.36-9.319-1.615-1.582z"/><path fill="#FEB480" d="M1766.227 236.34l-2.208 4.822s-.207.593.559.687l4.932-2.271-3.283-3.238z"/><path fill="#FEB480" d="M1766.227 236.34l-2.208 4.822s-.207.593.559.687l4.932-2.271-3.283-3.238z"/><path fill="#6C75E2" d="M1764.383 240.367l-.364.795s-.207.593.559.687l.907-.418-1.102-1.064z"/><path fill="#FEB480" d="M1776.437 226.183l1.937-1.921s.516-.531.938-.079l2.405 2.421s.406.422 0 .828l-2.03 1.984-3.25-3.233z"/><path fill="#f1f1f2" d="M1775.588 227.021l1.695-1.679 3.311 3.186-1.725 1.731z"/><path fill="#d1d3d4" d="M1777.254 228.677l1.71-1.717 1.63 1.568-1.725 1.731z"/><path fill="#e67c32" d="M1767.893 237.983l-2.987 2.89.578.558 4.025-1.853z"/><path fill="#E6E7E8" d="M1763.04 206.518h-12.395c-.689 0-1.25-.56-1.25-1.25v1.125c0 .69.561 1.25 1.25 1.25h12.395c.69 0 1.25-.56 1.25-1.25v-1.125c0 .69-.56 1.25-1.25 1.25z"/><path fill="#6C75E2" d="M1768.072 215.42l-.024.003c-.008 0-.015-.003-.022-.003h-18.966c-.022 0-.043.005-.064.008-.025-.002-.049-.008-.073-.008a1.074 1.074 0 1 0 0 2.15c.024 0 .048-.005.073-.007.021.002.042.007.064.007h18.966l.022-.002.024.002a1.074 1.074 0 1 0 0-2.15z"/><circle fill="#6C75E2" cx="1745.36" cy="216.5" r="1.08"/><path fill="#6C75E2" d="M1768.072 220.756l-.024.002-.022-.002h-18.966c-.022 0-.043.005-.064.007-.025-.001-.049-.007-.073-.007a1.074 1.074 0 1 0 0 2.15c.024 0 .048-.006.073-.007.021.002.042.007.064.007h18.966l.022-.002.024.002a1.074 1.074 0 1 0 0-2.15z"/><circle fill="#6C75E2" cx="1745.36" cy="221.84" r="1.08"/><path fill="#6C75E2" d="M1768.072 227.606l-.024.003-.022-.003h-18.966c-.022 0-.043.005-.064.008-.025-.002-.049-.008-.073-.008a1.074 1.074 0 1 0 0 2.15c.024 0 .048-.006.073-.007.021.002.042.007.064.007h18.966c.008 0 .015-.002.022-.003l.024.003a1.074 1.074 0 1 0 0-2.15z"/><circle fill="#6C75E2" cx="1745.36" cy="228.69" r="1.08"/></g></svg>